<svg width="32" height="32" viewBox="0 0 32 32" fill="none" xmlns="http://www.w3.org/2000/svg">
<path opacity="0.4" d="M28 30.3334H4C3.45333 30.3334 3 29.88 3 29.3334C3 28.7867 3.45333 28.3334 4 28.3334H28C28.5467 28.3334 29 28.7867 29 29.3334C29 29.88 28.5467 30.3334 28 30.3334Z" fill="white"/>
<path d="M7.46663 11.1733H5.33333C4.6 11.1733 4 11.7733 4 12.5067V24C4 24.7333 4.6 25.3333 5.33333 25.3333H7.46663C8.19997 25.3333 8.79997 24.7333 8.79997 24V12.5067C8.79997 11.76 8.19997 11.1733 7.46663 11.1733Z" fill="white"/>
<path d="M17.0667 6.91992H14.9334C14.2 6.91992 13.6 7.51992 13.6 8.25326V23.9999C13.6 24.7333 14.2 25.3333 14.9334 25.3333H17.0667C17.8 25.3333 18.4 24.7333 18.4 23.9999V8.25326C18.4 7.51992 17.8 6.91992 17.0667 6.91992Z" fill="white"/>
<path d="M26.6667 2.66663H24.5334C23.8 2.66663 23.2 3.26663 23.2 3.99996V24C23.2 24.7333 23.8 25.3333 24.5334 25.3333H26.6667C27.4 25.3333 28 24.7333 28 24V3.99996C28 3.26663 27.4 2.66663 26.6667 2.66663Z" fill="white"/>
</svg>
