<svg width="32" height="33" viewBox="0 0 32 33" fill="none" xmlns="http://www.w3.org/2000/svg"><circle cx="16" cy="16.5" r="16" fill="#fff"/><path d="M17.833 9h-3.667c-3.457 0-5.185 0-6.26 1.098-1.073 1.099-1.073 2.866-1.073 6.402s0 5.303 1.074 6.402C8.98 24 10.709 24 14.167 24h3.666c3.457 0 5.186 0 6.26-1.098s1.073-2.867 1.073-6.402 0-5.303-1.074-6.402C23.02 9 21.29 9 17.833 9" fill="#16687E"/><path d="M21.94 13.195a.687.687 0 1 0-.88-1.056l-1.979 1.649c-.855.712-1.449 1.206-1.95 1.528-.486.312-.814.417-1.13.417-.317 0-.646-.105-1.132-.417-.5-.322-1.094-.816-1.95-1.528l-1.979-1.65a.688.688 0 1 0-.88 1.057l2.013 1.678c.813.677 1.471 1.226 2.053 1.6.605.389 1.195.635 1.874.635.68 0 1.27-.246 1.875-.636.58-.373 1.24-.922 2.052-1.6z" fill="#F99F1B"/></svg>