<svg width="82" height="35" viewBox="0 0 76 33" fill="none" xmlns="http://www.w3.org/2000/svg"><path d="M76 16.185C76 7.246 68.754 0 59.815 0H3.519A3.52 3.52 0 0 0 0 3.52v11.963C0 24.809 7.561 32.37 16.889 32.37h42.926C68.754 32.37 76 25.124 76 16.185" fill="#fff"/><path d="M55.576 10.709a6.9 6.9 0 0 1 4.178-1.446h.118a6.922 6.922 0 0 1 5.72 10.73 6.91 6.91 0 0 1-5.778 3.111c-.78 0-1.528-.128-2.226-.367l.446-.654 2.371-3.471.077-.112q.06-.09.114-.183a4.34 4.34 0 0 0 .607-2.223c0-1.33-.594-2.522-1.532-3.324l-.001.002a2.477 2.477 0 0 1-.826 4.215l-.004.001a.812.812 0 0 0-.361 1.195l-.003.002a.812.812 0 0 1-.357 1.204l.001.001-1.375.595-.003.002-.054.024a.813.813 0 0 1-1.11-.757v-6.055a.815.815 0 0 0-1.343-.62 4.5 4.5 0 0 0-.659.6 6.9 6.9 0 0 1 2-2.47" fill="#17214C"/><path d="M59.817 7.037c5.045 0 9.148 4.103 9.148 9.148s-4.103 9.148-9.148 9.148-9.148-4.103-9.148-9.148 4.104-9.148 9.148-9.148m0 17.18c4.428 0 8.032-3.602 8.032-8.032s-3.603-8.033-8.032-8.033-8.033 3.603-8.033 8.033 3.604 8.032 8.033 8.032" fill="#CD7F58"/><path d="M19.517 20.653a16 16 0 0 1-.043-.582q-.01-.215-.01-.537V19h.316v.534a12 12 0 0 1-.05 1.119zm.1.708q-.1 0-.146-.047-.047-.051-.047-.164 0-.108.047-.156.046-.047.147-.047t.147.047q.05.048.05.156 0 .113-.05.164-.046.047-.147.047m2.676-.323a.34.34 0 0 0 .223-.07.25.25 0 0 0 .083-.195v-.593h.298v.582q0 .134.072.207.075.069.22.069h.097q.036 0 .036.16 0 .152-.036.152h-.108q-.33 0-.432-.214-.126.214-.453.214h-1.268q-.316 0-.479-.167-.158-.167-.158-.461v-.542h.299v.502q0 .356.356.356zm-.18-1.45v.287h-.948v-.287z" fill="#17214C"/><path d="M23.566 21.038a.36.36 0 0 0 .245-.077q.09-.075.09-.21v-.57h.301v.57q0 .287.32.287a.36.36 0 0 0 .245-.077q.09-.075.09-.21v-.57h.298v.57q0 .138.075.214.08.073.23.073.152 0 .23-.073a.28.28 0 0 0 .08-.214v-.57h.298v.563a.6.6 0 0 1-.165.446.6.6 0 0 1-.442.16q-.363 0-.468-.225-.132.225-.47.225-.382 0-.486-.225-.134.225-.47.225h-.281q-.036 0-.036-.152 0-.16.036-.16zM26.684 19h.299v2.35h-.299zm4.138 2.35q-.31 0-.41-.221-.126.22-.521.221-.324 0-.493-.156-.165-.157-.165-.436v-.225q0-.225.122-.338h-.162a.46.46 0 0 0-.327.113.4.4 0 0 0-.115.308v1.62h-.298v-1.62q0-.33.205-.526.204-.2.553-.2h.737q.303 0 .457.156.158.153.158.432v.25q0 .31.259.31h.093q.036 0 .036.16 0 .152-.036.152zm-.92-.312q.363 0 .363-.313v-.218a.3.3 0 0 0-.087-.229.3.3 0 0 0-.23-.083h-.115q-.147 0-.226.087a.34.34 0 0 0-.076.233v.185q0 .178.09.258.094.08.28.08" fill="#17214C"/><path d="M31.453 21.038q.036 0 .036.16a.5.5 0 0 1-.01.127q-.011.025-.026.025h-.539q-.036 0-.036-.152 0-.16.036-.16z" fill="#17214C"/><path d="M33.655 21.038q.036 0 .036.16 0 .152-.036.152a.76.76 0 0 0-.356.066.6.6 0 0 0-.22.258l-.294.548h-.166q-.388 0-.607-.218-.22-.214-.22-.61v-.044h-.337q-.036 0-.036-.152 0-.16.036-.16h.338v-.389q0-.364.18-.574t.488-.21q.3 0 .471.174.173.17.173.468a.73.73 0 0 1-.13.422.9.9 0 0 1-.363.298q-.23.108-.521.112v.044q0 .272.13.403.132.135.398.135l.22-.407q.108-.197.208-.295a.6.6 0 0 1 .245-.141 1.4 1.4 0 0 1 .363-.04m-.849-.512q0-.17-.093-.262-.09-.095-.255-.095a.33.33 0 0 0-.274.124q-.093.123-.093.356v.389q.33 0 .521-.138a.44.44 0 0 0 .194-.374" fill="#17214C"/><path d="M33.738 21.038q.255 0 .256-.233v-.149q0-.348.183-.548t.503-.2.493.189.172.545q0 .338-.18.523t-.495.185q-.375 0-.504-.225a.4.4 0 0 1-.162.17.56.56 0 0 1-.266.055h-.082q-.036 0-.036-.152 0-.16.036-.16zm1.309-.396q0-.429-.377-.429-.191 0-.285.109-.093.11-.093.334 0 .178.097.28.1.102.28.102.378 0 .378-.396m3.092.032q0 .193.064.28.069.084.198.084h.086q.017 0 .026.032.01.03.01.128a.4.4 0 0 1-.01.123q-.008.03-.026.03h-.086q-.398 0-.482-.346a.5.5 0 0 1-.215.127q-.14.04-.299.04-.306 0-.467-.167t-.162-.49q0-.204.087-.371a.69.69 0 0 1 .614-.37h.363v-.251h.299zm-1.064-.167q0 .353.348.353a.57.57 0 0 0 .302-.07q.115-.072.115-.192v-.52h-.363a.4.4 0 0 0-.294.113.44.44 0 0 0-.108.316" fill="#17214C"/><path d="M39.025 21.038q.036 0 .036.16a.5.5 0 0 1-.01.127q-.011.025-.026.025h-.539q-.036 0-.036-.152 0-.16.036-.16z" fill="#17214C"/><path d="M39.566 21.038q.036 0 .036.16a.5.5 0 0 1-.01.127q-.011.025-.026.025h-.54q-.035 0-.035-.152 0-.16.036-.16z" fill="#17214C"/><path d="M40.783 19.853a.8.8 0 0 1 .355.073.57.57 0 0 1 .234.24q.093.163.162.454l-.284.174a.43.43 0 0 0 .136.193q.08.05.223.05h.237q.037 0 .037.16a.5.5 0 0 1-.011.128q-.012.025-.026.025H41.6a.6.6 0 0 1-.342-.087q-.126-.09-.23-.327l-.248.156q-.23.145-.442.204a2.2 2.2 0 0 1-.529.054h-.24q-.036 0-.036-.152 0-.16.035-.16h.252q.27 0 .45-.044t.37-.152l.546-.324q-.057-.195-.158-.272-.097-.077-.295-.077h-.841l.04-.316zm-.55 2.256v-.301h.38v.302z" fill="#17214C"/><path d="M42.385 21.038q.036 0 .036.16a.5.5 0 0 1-.01.127q-.011.025-.026.025h-.54q-.035 0-.035-.152 0-.16.036-.16z" fill="#17214C"/><path d="M42.818 21.038a.33.33 0 0 0 .223-.073.25.25 0 0 0 .082-.196v-.589h.299v.582q0 .134.072.207.075.069.215.069h.1q.037 0 .037.156t-.036.156h-.111q-.332 0-.432-.214-.126.214-.45.214h-.43q-.037 0-.037-.152 0-.16.036-.16zm.309.77v.287h-.95v-.287z" fill="#17214C"/><path d="M44.491 21.038a.33.33 0 0 0 .223-.073.25.25 0 0 0 .083-.196v-.589h.298v.582q0 .134.072.207.075.069.216.069h.1q.036 0 .036.156t-.036.156h-.111q-.33 0-.432-.214-.126.214-.449.214h-.68q-.035 0-.035-.152 0-.16.036-.16zm.654-1.595v.287h-.949v-.287z" fill="#17214C"/><path d="M46.446 20.773q0 .268-.162.425a.6.6 0 0 1-.428.152h-.373q-.036 0-.036-.152 0-.16.036-.16h.373a.3.3 0 0 0 .209-.07.25.25 0 0 0 .083-.2v-.588h.298zm-.546-1.029v-.301h.38v.301zm-9.093-2.574a.21.21 0 0 1-.211-.211v-.432c0-.117.094-.212.21-.212h.785c.117 0 .211.095.211.212v.432a.21.21 0 0 1-.211.211zm-16.102-.854c.117 0 .212.094.212.21v.433a.21.21 0 0 1-.212.211h-2.191a.21.21 0 0 1-.211-.211v-.432c0-.117.094-.212.21-.212zm-7.598-2.026q.051 0 .071.092.03.08.03.353 0 .263-.03.344-.02.08-.071.08h-.265q-.774 0-1.181-.454-.397-.465-.397-1.313v-3.048a.21.21 0 0 1 .21-.211h.424c.116 0 .211.094.211.211v3.008q0 .939.774.939z" fill="#17214C"/><path d="M13.346 14.29q.723 0 .723-.646v-.414q0-.969.52-1.525.519-.555 1.425-.555.907 0 1.396.525t.488 1.515v.283q0 .434.174.626.172.192.53.192h.254q.102 0 .102.444 0 .424-.102.424H18.6q-.886 0-1.15-.646-.204.313-.602.485a2.2 2.2 0 0 1-.865.161q-1.059 0-1.426-.626a1.1 1.1 0 0 1-.458.475q-.285.15-.754.151h-.234q-.102 0-.102-.424 0-.444.102-.444zm3.707-1.1q0-1.192-1.07-1.192-.539 0-.804.303-.264.303-.264.93 0 .494.275.777.284.283.794.283 1.07 0 1.07-1.101" fill="#17214C"/><path d="M20.082 14.29q.398 0 .632-.201a.68.68 0 0 0 .234-.546v-1.425a.21.21 0 0 1 .211-.21h.423a.21.21 0 0 1 .211.21v1.405q0 .374.204.576.214.192.611.192h.285q.102 0 .102.434t-.102.434h-.316q-.936 0-1.222-.596-.356.596-1.273.596H18.86q-.1 0-.101-.424 0-.444.101-.444z" fill="#17214C"/><path d="M24.08 14.29q.449 0 .693-.211.254-.213.254-.586v-1.375a.21.21 0 0 1 .211-.21h.434a.21.21 0 0 1 .21.21v1.375q0 .798.907.798.448 0 .693-.212.255-.213.254-.586v-1.375c0-.116.095-.21.212-.21h.423a.21.21 0 0 1 .21.21v1.375q0 .384.215.596.223.202.651.202t.652-.202q.224-.213.224-.596v-1.375a.21.21 0 0 1 .211-.21h.423a.21.21 0 0 1 .211.21v1.355q0 .788-.468 1.242-.459.444-1.253.444-1.028 0-1.324-.626-.376.627-1.334.626-1.08 0-1.375-.626-.376.627-1.334.626h-1.197q-.102 0-.102-.424 0-.444.102-.444zm-10.973 0q.051 0 .071.092.03.08.03.353 0 .263-.03.344-.02.08-.071.08h-.265q-.774 0-1.181-.454-.397-.465-.397-1.313v-3.108a.15.15 0 0 1 .15-.151h.544a.15.15 0 0 1 .151.15v3.069q0 .939.774.939z" fill="#17214C"/><path d="M13.346 14.29q.723 0 .723-.646v-.414q0-.969.52-1.525.519-.555 1.425-.555.907 0 1.396.525t.488 1.515v.283q0 .434.174.626.172.192.53.192h.254q.102 0 .102.444 0 .424-.102.424H18.6q-.886 0-1.15-.646-.204.313-.602.485a2.2 2.2 0 0 1-.865.161q-1.059 0-1.426-.626a1.1 1.1 0 0 1-.458.475q-.285.15-.754.151h-.234q-.102 0-.102-.424 0-.444.102-.444zm3.707-1.1q0-1.192-1.07-1.192-.539 0-.804.303-.264.303-.264.93 0 .494.275.777.284.283.794.283 1.07 0 1.07-1.101" fill="#17214C"/><path d="M20.082 14.29q.398 0 .632-.201a.68.68 0 0 0 .234-.546v-1.485a.15.15 0 0 1 .15-.15h.545a.15.15 0 0 1 .15.15v1.465q0 .374.204.576.214.192.611.192h.285q.102 0 .102.434t-.102.434h-.316q-.936 0-1.222-.596-.356.596-1.273.596H18.86q-.1 0-.101-.424 0-.444.101-.444z" fill="#17214C"/><path d="M24.08 14.29q.449 0 .693-.211.254-.213.254-.586v-1.435a.15.15 0 0 1 .151-.15h.554a.15.15 0 0 1 .15.15v1.435q0 .798.907.798.448 0 .693-.212.255-.213.254-.586v-1.435a.15.15 0 0 1 .151-.15h.544a.15.15 0 0 1 .15.15v1.435q0 .384.215.596.223.202.651.202t.652-.202q.224-.213.224-.596v-1.435a.15.15 0 0 1 .15-.15h.545a.15.15 0 0 1 .15.15v1.415q0 .788-.468 1.242-.459.444-1.253.444-1.028 0-1.324-.626-.376.627-1.334.626-1.08 0-1.375-.626-.376.627-1.334.626h-1.197q-.102 0-.102-.424 0-.444.102-.444zm15.9.01q.363 0 .586-.2a.68.68 0 0 0 .222-.529v-1.417a.21.21 0 0 1 .211-.211h.416a.21.21 0 0 1 .21.21v1.438q0 .73-.453 1.149-.445.42-1.192.42h-5.414q-.888 0-1.343-.46-.444-.46-.444-1.269v-1.277c0-.117.095-.211.211-.211h.416a.21.21 0 0 1 .211.21v1.168q0 .98 1 .98zm6.468.546c0 .56-.071.766-.22 1.05a2.2 2.2 0 0 1-.913.938q-.58.336-1.373.336h-1.023a.21.21 0 0 1-.21-.211v-.427a.21.21 0 0 1 .21-.211h1.033q.802 0 1.273-.425c.204-.184.319-.385.369-.737l-.98.003q-1.034 0-1.495-.415-.45-.424-.451-1.313 0-.613.24-1.087.241-.485.672-.74.442-.268.993-.268.873 0 1.374.573t.501 1.57zM43.5 13.384q0 .504.25.721.262.207.913.208h.953v-.77q0-.683-.28-1.028-.282-.346-.813-.346a.92.92 0 0 0-.742.336q-.28.336-.28.88" fill="#17214C"/></svg>