<svg width="32" height="33" viewBox="0 0 32 33" fill="none" xmlns="http://www.w3.org/2000/svg"><circle cx="16" cy="16.5" r="16" fill="#fff"/><path d="m17.636 10.93-.541.97c-.488.874-.292 2.021.476 2.79 0 0 .933.932-.758 2.623-1.69 1.69-2.622.759-2.623.758-.769-.769-1.916-.965-2.79-.477l-.97.541c-1.32.737-1.476 2.59-.315 3.75.697.698 1.552 1.24 2.496 1.276 1.59.06 4.29-.342 7-3.05 2.708-2.71 3.11-5.41 3.05-7-.035-.945-.578-1.8-1.276-2.497-1.16-1.16-3.012-1.005-3.75.316" fill="#16687E"/><path d="M14.95 8.067a.626.626 0 0 0-.718-.517l-.124.025q-.108.023-.294.076c-.248.072-.593.19-1.008.38-.83.381-1.935 1.047-3.081 2.194-1.147 1.146-1.813 2.251-2.193 3.081-.19.415-.31.76-.381 1.008a5 5 0 0 0-.094.379l-.005.026a.64.64 0 0 0 .515.731c.34.055.66-.175.716-.514.002-.009.006-.033.012-.056q.014-.071.056-.217c.056-.193.154-.481.317-.836.325-.708.909-1.687 1.94-2.718 1.032-1.032 2.01-1.616 2.719-1.94.355-.164.643-.261.836-.318a5 5 0 0 1 .265-.066.63.63 0 0 0 .522-.718" fill="#F99F1B"/><path fill-rule="evenodd" clip-rule="evenodd" d="M14.762 10.941a.625.625 0 0 0-.773-.429l.172.601-.172-.6h-.005l-.007.003-.016.005a2 2 0 0 0-.195.074 4 4 0 0 0-.49.253c-.409.241-.966.642-1.62 1.296s-1.055 1.211-1.296 1.62c-.12.203-.201.369-.253.49a3 3 0 0 0-.074.195l-.005.016-.002.007-.001.003s0 .002.6.174l-.6-.172a.625.625 0 0 0 1.199.352l.003-.01q.006-.018.029-.072c.03-.072.086-.19.18-.347.185-.314.52-.789 1.104-1.372.583-.583 1.058-.919 1.372-1.104a3 3 0 0 1 .42-.21l.009-.002a.625.625 0 0 0 .42-.77" fill="#F99F1B"/></svg>