<?xml version="1.0" encoding="UTF-8"?>
<svg width="269" height="72" viewBox="0 0 269 72" fill="none" xmlns="http://www.w3.org/2000/svg">
<path d="M240.466 66.2713V67.1878C240.436 67.1574 240.401 67.1227 240.371 67.0923C238.87 68.5692 237.445 70.1286 235.931 71.5925H235.918C234.258 69.994 232.696 68.2912 231.062 66.6666C229.418 68.2868 227.844 69.9766 226.201 71.5925H226.188C224.515 69.9853 222.944 68.2738 221.297 66.6361C222.931 64.9898 224.54 63.3131 226.179 61.6711L231.057 66.6101C232.692 64.9681 234.296 63.3 235.922 61.6537C237.42 63.2088 238.938 64.7379 240.462 66.2713H240.466Z" fill="#F99F1B"/>
<path d="M227.203 47.9187C230.691 51.2071 236.011 52.7795 240.58 51.0767C243.446 50.0168 245.239 47.3453 246.921 44.9301C247.389 41.8025 247.698 38.6358 247.938 35.4778C247.47 35.708 247.016 35.9904 246.81 36.4986C245.492 38.8139 243.794 41.0467 241.421 42.3151C237.139 44.448 231.691 44.1091 227.825 41.2291C225.925 39.8608 225.066 37.3718 225.324 35.0738C225.504 31.3294 227.1 27.876 228.645 24.5356C230.807 20.8041 233.776 17.6461 236.835 14.6575C239.469 12.529 242.215 10.5395 244.879 8.44578C244.034 5.75257 243.206 3.05067 242.373 0.353111H242.343C236.633 5.04017 230.957 10.0139 226.963 16.3386C223.217 22.2333 221.428 29.4051 222.149 36.39C222.578 40.6253 224.114 44.9171 227.203 47.9187Z" fill="white"/>
<path d="M245.072 13.5497C239.121 16.3776 234.281 21.1255 230.352 26.3859C229.343 27.7456 228.704 29.3441 228.344 30.9992C228.871 31.2424 229.639 32.1633 230.068 31.2815C233.445 26.5336 238.319 23.0933 243.493 20.6129C250.872 17.1334 259.006 15.9563 266.948 14.5662C267.643 12.1032 268.376 9.64892 269.024 7.17291C260.843 8.34141 252.614 10.0182 245.072 13.5497Z" fill="white"/>
<path d="M248.96 21.8729C248.35 24.084 247.557 26.2603 247.248 28.5451C247.149 29.3357 247.063 30.413 247.926 30.8126C250.903 32.8022 253.859 34.9133 256.201 37.6673C259.484 41.6029 262.362 46.3117 262.573 51.6025C262.907 55.6641 263.006 59.8385 261.787 63.7741C261.487 64.569 262.272 64.9469 262.826 65.2336C264.748 62.7185 265.202 59.465 265.64 56.4069C266.575 49.3393 265.704 41.8374 262.105 35.6083C258.994 29.9439 253.996 25.7173 248.96 21.8729Z" fill="white"/>
<path d="M253.669 49.4174C252.862 46.4635 251.974 43.5184 250.94 40.6384C250.743 40.5689 250.344 40.4299 250.146 40.3604C250 44.9041 248.061 49.5564 244.376 52.2887C241.24 54.5258 237.203 54.7473 233.509 54.3911C229.686 53.8959 226.781 50.9899 224.366 48.1837C220.089 43.3185 218.162 36.8375 217.39 30.4823C214.438 30.491 211.487 30.4824 208.535 30.491V30.6257C209.659 39.3004 215.193 46.7459 221.753 52.1323C225.481 54.9732 229.531 57.6925 234.195 58.596C238.829 59.543 243.912 59.5951 248.224 57.4058C251.223 55.9158 253.45 52.8186 253.669 49.4174Z" fill="white"/>
<path d="M254.448 38.8789C255.237 42.6277 255.61 46.5025 255.319 50.3251C254.521 55.1077 251.595 59.3908 247.738 62.2013C245.494 63.8606 243.04 65.2116 240.466 66.2715V66.2724L239.828 66.5452L240.466 67.1868V67.1881C241.924 68.652 243.37 70.1202 244.825 71.5928H244.859C250.007 68.7997 254.817 64.7338 257.086 59.1475C259.729 52.6143 258.588 45.0907 255.615 38.8746C255.323 38.8746 254.739 38.8789 254.448 38.8789Z" fill="white"/>
<path d="M239.451 40.7166C242.591 40.3039 244.946 37.0026 244.346 33.8532C243.9 30.4346 240.158 28.0194 236.906 29.0793C234.071 29.8525 232.161 32.9888 232.758 35.9036C233.238 38.9921 236.409 41.2813 239.451 40.7166Z" fill="#F99F1B"/>
<path d="M9.03913 31.7035C9.03913 31.3646 8.72122 30.9329 8.08541 30.4077L6.07799 28.7557V29.2387C6.07799 30.2383 6.27019 31.0389 6.65503 31.6401C7.03987 32.2408 7.54998 32.5418 8.1858 32.5418C8.75469 32.5418 9.03913 32.2625 9.03913 31.7035ZM11.8497 32.0336C11.5652 32.0336 11.2851 31.9954 11.0092 31.9194C10.7329 31.8433 10.503 31.7122 10.3189 31.5254C10.3189 32.8468 10.131 33.825 9.75432 34.4601C9.37807 35.0956 8.77142 35.4132 7.93482 35.4132C7.299 35.4132 6.77215 35.2351 6.35385 34.8797C5.93555 34.524 5.6052 34.0791 5.3628 33.5457C5.11997 33.0119 4.94879 32.4233 4.8484 31.7795C4.748 31.1362 4.69781 30.518 4.69781 29.9246H3.69389C3.35881 29.9246 3.04133 29.9798 2.74016 30.0902C2.43898 30.2005 2.28839 30.4755 2.28839 30.9159C2.28839 31.2713 2.29654 31.6444 2.3137 32.0336C2.33001 32.4233 2.35146 32.8507 2.37634 33.3168C2.40166 33.7825 2.4304 34.3033 2.46429 34.8797C2.49733 35.4553 2.52264 36.0991 2.53937 36.8106C2.25493 37.3019 2.03312 37.6954 1.87438 37.9921C1.71521 38.2884 1.58994 38.513 1.49812 38.6654C1.40588 38.8179 1.33466 38.9195 1.2849 38.9704C1.2347 39.0212 1.18451 39.0464 1.13431 39.0464C1.05022 39.0464 1.00002 38.9026 0.983721 38.6146C0.849435 36.9205 0.719868 35.447 0.594593 34.1934C0.468888 32.9397 0.40625 31.9576 0.40625 31.2461C0.40625 30.518 0.514794 29.8864 0.73274 29.353C0.949827 28.8196 1.25958 28.3834 1.66115 28.0446C2.06272 27.7058 2.53937 27.456 3.09153 27.2949C3.64369 27.1341 4.26235 27.0451 4.94879 27.0281L5.52583 25.3001C7.44959 26.8248 8.53717 27.655 8.78815 27.7905C9.29012 28.1124 9.80452 28.3496 10.3314 28.502C10.8586 28.6541 11.3645 28.7305 11.8497 28.7305V32.0336Z" fill="white"/>
<path d="M11.8487 32.0339C11.6647 32.0339 11.4974 32.017 11.3468 31.9831C11.1962 31.9492 11.1211 31.8984 11.1211 31.8306V28.9341C11.1211 28.8664 11.1962 28.8155 11.3468 28.7817C11.4974 28.7478 11.6647 28.7308 11.8487 28.7308H17.7903V32.0339H11.8487Z" fill="white"/>
<path d="M24.192 32.0337C23.6901 32.0337 23.192 31.8856 22.699 31.5893C22.2052 31.2926 21.8581 30.8991 21.6573 30.4073C21.4064 30.8648 21.0382 31.2505 20.5534 31.5637C20.0678 31.8773 19.5997 32.0337 19.148 32.0337H17.7927C17.609 32.0337 14.0091 32.0168 13.8585 31.9829C13.7079 31.949 13.6328 31.8982 13.6328 31.8304V28.9339C13.6328 28.8661 13.7079 28.8153 13.8585 28.7814C14.0091 28.7475 17.609 28.7306 17.7927 28.7306H19.1226C20.3608 28.7306 20.9799 28.1459 20.9799 26.9774C20.9799 26.3675 20.9632 25.656 20.9297 24.8428C20.8958 24.0301 20.8456 23.107 20.7791 22.0731C20.7122 21.0063 20.6491 20.151 20.5908 19.5072C20.532 18.8634 20.4779 18.423 20.4277 18.1858L22.8869 15.8484C23.0208 15.7128 23.0877 15.738 23.0877 15.9244V26.9266C23.0877 28.1294 23.6815 28.7306 24.8695 28.7306H26.4504V32.0337H24.192Z" fill="white"/>
<path d="M26.4464 32.0337C26.2623 32.0337 26.095 32.0168 25.9444 31.9829C25.7938 31.949 25.7188 31.8982 25.7188 31.8304V28.9339C25.7188 28.8661 25.7938 28.8153 25.9444 28.7814C26.095 28.7475 26.2623 28.7306 26.4464 28.7306H31.9589V32.0337H26.4464Z" fill="white"/>
<path d="M38.7629 18.6252L37.2322 20.2003L35.6761 18.6252L37.2322 17.0497L38.7629 18.6252ZM37.5835 24.767C37.4995 24.5807 37.3909 24.3856 37.2571 24.1824C37.1232 23.9791 36.9688 23.7975 36.7929 23.6363C36.6174 23.4756 36.4205 23.3401 36.2034 23.2297C35.9854 23.1198 35.7598 23.0642 35.5255 23.0642C35.2243 23.0642 34.9691 23.1663 34.7601 23.3692C34.5508 23.5725 34.4465 23.7845 34.4465 24.0047C34.4465 24.5976 35.0235 24.8939 36.1781 24.8939C36.4123 24.8939 36.6461 24.8813 36.8808 24.8557C37.115 24.8305 37.3489 24.8009 37.5835 24.767ZM35.7537 18.6252L34.1981 20.2003L32.6673 18.6252L34.1981 17.0497L35.7537 18.6252ZM37.7843 28.197C37.9851 28.1123 38.1061 27.9515 38.1481 27.7144C38.1898 27.4772 38.1859 27.2405 38.1357 27.0028C37.8006 27.0706 37.4076 27.134 36.9559 27.1935C36.5045 27.253 36.0275 27.2822 35.5255 27.2822C33.8193 27.2822 32.9659 26.6558 32.9659 25.4021C32.9659 24.9786 33.0286 24.4834 33.1543 23.9156C33.2795 23.3483 33.4718 22.8101 33.7313 22.3023C33.9904 21.7941 34.3165 21.3619 34.7099 21.0061C35.1029 20.6508 35.5671 20.4727 36.103 20.4727C36.7555 20.4727 37.2987 20.6847 37.7341 21.1077C38.1687 21.5313 38.5158 22.0608 38.7754 22.6959C39.0345 23.3309 39.2229 24.009 39.34 24.7288C39.4571 25.4486 39.5159 26.105 39.5159 26.6979C39.5159 27.7652 39.3777 28.6418 39.1019 29.3277C38.8256 30.0136 38.4197 30.5601 37.8847 30.9666C37.3489 31.3732 36.6963 31.6525 35.9271 31.805C35.1574 31.9575 34.2792 32.0339 33.292 32.0339H31.962C31.778 32.0339 31.6106 32.017 31.46 31.9827C31.3095 31.9492 31.2344 31.8984 31.2344 31.8306V28.9337C31.2344 28.8664 31.3095 28.8155 31.46 28.7812C31.6106 28.7478 31.778 28.7308 31.962 28.7308H33.7691C35.7598 28.7308 37.0979 28.5527 37.7843 28.197Z" fill="white"/>
<path d="M44.6316 32.0339C43.979 32.0339 43.4436 31.9028 43.0253 31.6399C42.607 31.3776 42.2724 31.0387 42.0218 30.6235C41.7708 30.2086 41.5906 29.7469 41.4821 29.2391C41.3731 28.7308 41.3105 28.2313 41.2938 27.74C41.2603 27.1979 41.235 26.512 41.2187 25.6814C41.2019 24.8517 41.1685 23.9539 41.1183 22.9882C41.0342 21.6842 40.951 20.6043 40.8673 19.7485C40.7832 18.8937 40.7249 18.2794 40.6914 17.9067L42.8245 16.1027C43.0588 15.9164 43.2012 15.823 43.2514 15.823C43.3179 15.823 43.3518 15.9333 43.3518 16.1531V26.9268C43.3518 28.1296 44.0207 28.7308 45.3592 28.7308H46.4635V32.0339H44.6316Z" fill="white"/>
<path d="M46.462 32.0337C46.278 32.0337 46.1106 32.0168 45.96 31.9829C45.8095 31.949 45.7344 31.8982 45.7344 31.8304V28.9339C45.7344 28.8661 45.8095 28.8153 45.96 28.7814C46.1106 28.7475 46.278 28.7306 46.462 28.7306H57.5519V32.0337H46.462Z" fill="white"/>
<path d="M58.2572 25.1034L56.375 26.9835L54.5431 25.1034L56.375 23.2738L58.2572 25.1034ZM57.551 32.0337C57.3674 32.0337 57.1996 32.0172 57.049 31.9829C56.8984 31.949 56.8234 31.8986 56.8234 31.8304V28.9339C56.8234 28.8666 56.8984 28.8153 57.049 28.7814C57.1996 28.7475 57.3674 28.7306 57.551 28.7306H59.2075C60.4452 28.7306 61.0643 28.5021 61.0643 28.0447C61.0643 27.655 60.5877 26.9353 59.6339 25.8849C59.5837 25.8171 59.5588 25.7494 59.5588 25.6816C59.5588 25.6139 59.5837 25.5378 59.6339 25.4527L61.1145 23.3694C61.1814 23.2677 61.2484 23.2169 61.3153 23.2169C61.3822 23.2169 61.441 23.2421 61.4912 23.2933C61.692 23.4962 61.8713 23.7464 62.0305 24.0427C62.1896 24.3394 62.3231 24.6569 62.432 24.9953C62.5406 25.3345 62.6285 25.6816 62.6955 26.0369C62.7624 26.3931 62.7959 26.7233 62.7959 27.0282C62.7959 28.536 62.4655 29.7466 61.8048 30.6615C61.1437 31.5763 60.2195 32.0337 59.0316 32.0337H57.551Z" fill="white"/>
<path d="M93.0183 28.9729C93.0183 30.3451 92.7334 31.6322 92.165 32.8351C91.9977 33.1908 91.7926 33.5505 91.5502 33.915C91.3074 34.279 91.0611 34.6095 90.8101 34.9058C90.5591 35.202 90.3287 35.4436 90.1198 35.6299C89.9104 35.8163 89.7641 35.9097 89.6805 35.9097C89.1451 35.9097 88.5719 35.8879 87.9614 35.8462C87.3513 35.8037 86.7863 35.7485 86.2676 35.6807C85.7493 35.613 85.3181 35.5326 84.9753 35.4397C84.6325 35.3463 84.4609 35.249 84.4609 35.1473C84.4609 35.113 84.5197 35.0713 84.6364 35.02C85.4563 34.732 86.2676 34.3511 87.0707 33.8772C87.8738 33.4024 88.5972 32.8941 89.2416 32.3525C89.8856 31.8099 90.4038 31.2682 90.7972 30.7261C91.1902 30.184 91.3872 29.6931 91.3872 29.2527C91.3872 29.0832 91.3155 28.8587 91.1739 28.5789C91.0315 28.2996 90.8474 28.0073 90.6218 27.7023C90.3957 27.3978 90.1533 27.1016 89.8941 26.8131C89.6346 26.5256 89.3793 26.2797 89.1283 26.0764L90.3583 23.4592C90.3914 23.3745 90.4416 23.3324 90.5089 23.3324C90.5591 23.3324 90.6093 23.3576 90.6591 23.4084C92.2319 25.0009 93.0183 26.8557 93.0183 28.9729Z" fill="white"/>
<path d="M96.0191 29.112C96.0191 29.7557 95.7012 30.7553 95.0653 32.1101C94.8813 32.4659 94.7642 32.6436 94.714 32.6436C94.6136 32.6436 94.5218 32.2457 94.4381 31.4494L93.2587 17.9321L95.5926 15.9756C95.726 15.8401 95.8264 15.7723 95.8938 15.7723C95.977 15.7723 96.0191 15.8653 96.0191 16.0516V29.112ZM98.2526 12.7229C98.2526 12.7911 98.1732 12.9518 98.014 13.2059C97.8549 13.4601 97.6335 13.7311 97.3491 14.0187C97.0646 14.3071 96.7132 14.5651 96.2954 14.7941C95.8766 15.0226 95.4081 15.1368 94.8899 15.1368C94.6389 15.1368 94.3836 15.1029 94.1245 15.0352C93.8649 14.9678 93.6225 14.887 93.3964 14.7941C93.1708 14.7011 92.9738 14.6203 92.8069 14.5525C92.6396 14.4852 92.5225 14.4509 92.4556 14.4509C92.3552 14.4509 92.2634 14.4891 92.1797 14.5651C92.096 14.6412 92.0162 14.7263 91.9412 14.8193C91.8657 14.9127 91.7867 14.9974 91.7026 15.0734C91.6194 15.1494 91.5272 15.1876 91.4268 15.1876C91.2594 15.1876 91.1758 15.0947 91.1758 14.9083C91.1758 14.8236 91.2303 14.6629 91.3388 14.4253C91.4478 14.1885 91.5774 13.9427 91.7279 13.6885C91.8785 13.4344 92.0377 13.2103 92.2046 13.0152C92.3719 12.8206 92.5143 12.7229 92.6315 12.7229C92.7482 12.7229 92.8988 12.7655 93.0828 12.8502C93.2669 12.9349 93.4758 13.0239 93.7105 13.1169C93.9443 13.2103 94.1996 13.2993 94.4759 13.3836C94.7517 13.4687 95.0486 13.5109 95.3665 13.5109C95.7012 13.5109 96.0148 13.4601 96.3078 13.3584C96.6 13.2568 96.8638 13.1421 97.0981 13.0152C97.3323 12.8884 97.5288 12.7737 97.688 12.6721C97.8467 12.5704 97.9677 12.52 98.0518 12.52C98.1857 12.52 98.2526 12.5878 98.2526 12.7229Z" fill="white"/>
<path d="M111.687 24.2456L110.156 25.8211L108.6 24.2456L110.156 22.6705L111.687 24.2456ZM108.678 24.2456L107.122 25.8211L105.591 24.2456L107.122 22.6705L108.678 24.2456ZM106.666 32.2627C102.082 32.2627 99.7893 30.7471 99.7893 27.7146C99.7893 27.3081 99.8481 26.885 99.9652 26.4441C100.082 26.0036 100.229 25.5974 100.404 25.2243C100.58 24.852 100.768 24.5471 100.969 24.3095C101.17 24.0727 101.354 23.9541 101.521 23.9541C101.789 23.9541 101.922 24.0984 101.922 24.3859C101.922 24.6235 101.856 24.8902 101.722 25.1865C101.588 25.4832 101.521 25.8259 101.521 26.2156C101.521 26.9102 101.722 27.4479 102.123 27.8289C102.525 28.2098 103.022 28.4896 103.617 28.6673C104.21 28.8454 104.842 28.947 105.511 28.9722C106.18 28.9978 106.791 29.0104 107.343 29.0104C108.581 29.0104 109.69 28.9891 110.668 28.947C111.647 28.9049 112.479 28.8367 113.166 28.7437C113.851 28.6507 114.378 28.5239 114.746 28.3627C115.114 28.2016 115.298 28.0026 115.298 27.7655C115.298 27.7146 115.244 27.6004 115.135 27.4223C115.026 27.2446 114.897 27.0457 114.746 26.825C114.596 26.6052 114.432 26.3893 114.257 26.1773C114.081 25.9658 113.926 25.7925 113.793 25.6565L115.449 23.5475C115.516 23.4459 115.575 23.3951 115.625 23.3951C115.675 23.3951 115.733 23.4376 115.8 23.5219C116.185 24.0645 116.494 24.6066 116.729 25.1483C116.963 25.6904 117.08 26.2751 117.08 26.9015C117.08 27.8163 116.938 28.5956 116.654 29.2393C116.369 29.8831 115.926 30.4252 115.324 30.8653C115.006 31.1029 114.6 31.3057 114.106 31.4751C113.613 31.6446 113.014 31.7888 112.312 31.9069C111.609 32.026 110.794 32.1141 109.865 32.1736C108.937 32.2332 107.87 32.2627 106.666 32.2627Z" fill="white"/>
<path d="M120.503 29.1122C120.503 29.756 120.185 30.7555 119.549 32.1104C119.365 32.4661 119.248 32.6438 119.197 32.6438C119.097 32.6438 119.005 32.2459 118.922 31.4497L117.742 17.9323L120.076 15.9759C120.21 15.8403 120.31 15.7726 120.377 15.7726C120.461 15.7726 120.503 15.8655 120.503 16.0519V29.1122Z" fill="white"/>
<path d="M126.303 28.9729C126.303 30.3451 126.019 31.6322 125.45 32.8351C125.283 33.1908 125.078 33.5505 124.835 33.915C124.593 34.279 124.346 34.6095 124.095 34.9058C123.844 35.202 123.614 35.4436 123.405 35.6299C123.196 35.8163 123.049 35.9097 122.966 35.9097C122.43 35.9097 121.857 35.8879 121.247 35.8462C120.636 35.8037 120.071 35.7485 119.553 35.6807C119.034 35.613 118.603 35.5326 118.26 35.4397C117.918 35.3463 117.746 35.249 117.746 35.1473C117.746 35.113 117.805 35.0713 117.922 35.02C118.741 34.732 119.553 34.3511 120.356 33.8772C121.159 33.4024 121.882 32.8941 122.527 32.3525C123.171 31.8099 123.689 31.2682 124.082 30.7261C124.475 30.184 124.672 29.6931 124.672 29.2527C124.672 29.0832 124.601 28.8587 124.459 28.5789C124.317 28.2996 124.133 28.0073 123.907 27.7023C123.681 27.3978 123.438 27.1016 123.179 26.8131C122.92 26.5256 122.664 26.2797 122.413 26.0764L123.643 23.4592C123.677 23.3745 123.727 23.3324 123.794 23.3324C123.844 23.3324 123.894 23.3576 123.944 23.4084C125.517 25.0009 126.303 26.8557 126.303 28.9729Z" fill="white"/>
<path d="M130.557 32.0339C129.905 32.0339 129.369 31.9028 128.951 31.6399C128.533 31.3776 128.198 31.0387 127.948 30.6235C127.697 30.2086 127.516 29.7469 127.408 29.2391C127.299 28.7308 127.236 28.2313 127.22 27.74C127.186 27.1979 127.161 26.512 127.144 25.6814C127.128 24.8517 127.094 23.9539 127.044 22.9882C126.96 21.6842 126.877 20.6043 126.793 19.7485C126.709 18.8937 126.651 18.2794 126.617 17.9067L128.75 16.1027C128.985 15.9164 129.127 15.823 129.177 15.823C129.244 15.823 129.278 15.9333 129.278 16.1531V26.9268C129.278 28.1296 129.946 28.7308 131.285 28.7308H132.389V32.0339H130.557Z" fill="white"/>
<path d="M132.392 32.0337C132.208 32.0337 132.04 32.0168 131.89 31.9829C131.739 31.949 131.664 31.8982 131.664 31.8304V28.9339C131.664 28.8661 131.739 28.8153 131.89 28.7814C132.04 28.7475 132.208 28.7306 132.392 28.7306H145.198V32.0337H132.392Z" fill="white"/>
<path d="M155.086 23.8622L156.617 22.3123L158.173 23.8622L156.617 25.4373L155.086 23.8622ZM153.33 21.245L154.861 19.7203L156.416 21.245L154.861 22.8205L153.33 21.245ZM151.623 23.8622L153.179 22.3123L154.735 23.8622L153.179 25.4373L151.623 23.8622ZM162.085 32.0339C161.031 32.0339 160.161 31.4414 159.476 30.2555C159.141 30.8485 158.76 31.2933 158.334 31.5896C157.907 31.8862 157.459 32.0339 156.991 32.0339C156.405 32.0339 155.908 31.8862 155.498 31.5896C155.088 31.2933 154.716 30.8485 154.381 30.2555C154.046 30.8485 153.67 31.2933 153.252 31.5896C152.833 31.8862 152.34 32.0339 151.771 32.0339C150.684 32.0339 149.822 31.4414 149.187 30.2555C148.5 31.4414 147.472 32.0339 146.1 32.0339H145.196C145.012 32.0339 144.845 32.0174 144.694 31.9831C144.544 31.9497 144.469 31.8988 144.469 31.8311V28.9341C144.469 28.8668 144.544 28.816 144.694 28.7817C144.845 28.7482 145.012 28.7308 145.196 28.7308H146.677C147.045 28.7308 147.342 28.68 147.568 28.5784C147.794 28.4772 147.978 28.3329 148.12 28.1466C148.262 27.9607 148.379 27.7317 148.471 27.4607C148.563 27.1896 148.651 26.8847 148.735 26.5459C148.868 26.0211 149.069 25.7583 149.337 25.7583C149.638 25.7583 149.856 26.0211 149.989 26.5459C150.056 26.8339 150.123 27.1093 150.19 27.3716C150.257 27.6344 150.358 27.8673 150.491 28.0706C150.625 28.2734 150.805 28.4346 151.031 28.5532C151.257 28.6718 151.554 28.7308 151.922 28.7308C152.273 28.7308 152.558 28.6761 152.775 28.5658C152.992 28.4559 153.172 28.2991 153.315 28.0958C153.456 27.8925 153.57 27.6601 153.653 27.3968C153.737 27.1345 153.821 26.8508 153.904 26.5459C154.038 26.0211 154.264 25.7583 154.582 25.7583C154.849 25.7583 155.05 26.0211 155.185 26.5459C155.234 26.8508 155.293 27.1345 155.36 27.3968C155.427 27.6601 155.527 27.8886 155.661 28.0832C155.795 28.2782 155.979 28.4346 156.213 28.5532C156.447 28.6718 156.757 28.7308 157.142 28.7308C157.71 28.7308 158.12 28.5275 158.371 28.1214C158.622 27.7148 158.815 27.1896 158.948 26.5459C158.999 26.2917 159.09 26.0971 159.225 25.9616C159.359 25.8261 159.501 25.7583 159.651 25.7583C159.969 25.7583 160.17 26.0211 160.254 26.5459C160.304 26.8847 160.366 27.1853 160.442 27.4477C160.517 27.7105 160.626 27.9394 160.768 28.1336C160.91 28.329 161.103 28.4772 161.345 28.5784C161.588 28.68 161.91 28.7308 162.312 28.7308H163.717V32.0339H162.085Z" fill="white"/>
<path d="M163.716 32.0337C163.532 32.0337 163.365 32.0168 163.214 31.9829C163.063 31.949 162.988 31.8982 162.988 31.8304V28.9339C162.988 28.8661 163.063 28.8153 163.214 28.7814C163.365 28.7475 163.532 28.7306 163.716 28.7306H178.238V32.0337H163.716Z" fill="white"/>
<path d="M180.221 23.8109L178.69 25.3865L177.134 23.8109L178.69 22.2359L180.221 23.8109ZM177.212 23.8109L175.656 25.3865L174.125 23.8109L175.656 22.2359L177.212 23.8109ZM184.99 32.0339C184.354 32.0339 183.727 31.8858 183.108 31.5891C182.489 31.2929 182.02 30.8142 181.702 30.1535C181.385 30.696 180.933 31.1443 180.348 31.5001C179.762 31.8558 179.143 32.0339 178.49 32.0339H178.239C178.056 32.0339 177.888 32.017 177.737 31.9827C177.587 31.9492 177.512 31.8984 177.512 31.8306V28.9337C177.512 28.8664 177.587 28.8155 177.737 28.7812C177.888 28.7478 178.056 28.7308 178.239 28.7308H178.39C178.842 28.7139 179.256 28.6379 179.632 28.5019C180.009 28.3664 180.314 28.1635 180.548 27.892C180.799 27.5871 180.983 27.0706 181.101 26.3421C181.167 25.7831 181.368 25.5038 181.702 25.5038C182.02 25.5038 182.221 25.7831 182.305 26.3421C182.422 27.0875 182.581 27.604 182.782 27.892C183.183 28.4511 183.886 28.7308 184.89 28.7308H185.166V32.0339H184.99Z" fill="white"/>
<path d="M185.165 32.0337C184.981 32.0337 184.814 32.0168 184.663 31.9829C184.513 31.949 184.438 31.8982 184.438 31.8304V28.9339C184.438 28.8661 184.513 28.8153 184.663 28.7814C184.814 28.7475 184.981 28.7306 185.165 28.7306H192.823V32.0337H185.165Z" fill="white"/>
<path d="M193.956 23.8005L192.074 25.6806L190.242 23.8005L192.074 21.9709L193.956 23.8005ZM192.821 32.0339C192.637 32.0339 192.47 32.0174 192.319 31.9831C192.169 31.9492 192.093 31.8988 192.093 31.8306V28.9341C192.093 28.8668 192.169 28.8155 192.319 28.7817C192.47 28.7478 192.637 28.7308 192.821 28.7308H194.478C195.715 28.7308 196.334 28.5024 196.334 28.0449C196.334 27.6553 195.858 26.9355 194.904 25.8852C194.854 25.8174 194.829 25.7496 194.829 25.6819C194.829 25.6141 194.854 25.5381 194.904 25.4529L196.385 23.3696C196.451 23.268 196.518 23.2171 196.585 23.2171C196.652 23.2171 196.711 23.2423 196.761 23.2936C196.962 23.4965 197.141 23.7467 197.301 24.0429C197.46 24.3396 197.593 24.6571 197.702 24.9955C197.811 25.3348 197.899 25.6819 197.966 26.0372C198.032 26.3934 198.066 26.7235 198.066 27.0285C198.066 28.5362 197.736 29.7469 197.075 30.6617C196.414 31.5765 195.49 32.0339 194.302 32.0339H192.821Z" fill="white"/>
<path d="M201.694 29.112C201.694 29.7557 201.376 30.7553 200.74 32.1101C200.556 32.4659 200.439 32.6436 200.389 32.6436C200.288 32.6436 200.197 32.2457 200.113 31.4494L198.934 17.9321L201.268 15.9756C201.401 15.8401 201.501 15.7723 201.569 15.7723C201.652 15.7723 201.694 15.8653 201.694 16.0516V29.112Z" fill="white"/>
<path d="M67.7957 32.0337C67.1431 32.0337 66.6077 31.9025 66.1894 31.6397C65.7711 31.3773 65.4364 31.0385 65.1859 30.6232C64.9349 30.2084 64.7547 29.7466 64.6462 29.2388C64.5372 28.7306 64.4746 28.231 64.4578 27.7398C64.4244 27.1976 64.399 26.5117 64.3827 25.6812C64.366 24.8515 64.3325 23.9536 64.2824 22.988C64.1983 21.6839 64.115 20.604 64.0314 19.7483C63.9473 18.8934 63.8889 18.2792 63.8555 17.9065L65.9886 16.1025C66.2228 15.9161 66.3653 15.8227 66.4155 15.8227C66.482 15.8227 66.5159 15.9331 66.5159 16.1529V26.9266C66.5159 28.1294 67.1847 28.7306 68.5233 28.7306H69.6276V32.0337H67.7957Z" fill="white"/>
<path d="M69.63 32.0339C69.4459 32.0339 69.2786 32.017 69.128 31.9831C68.9774 31.9492 68.9023 31.8984 68.9023 31.8306V28.9341C68.9023 28.8664 68.9774 28.8155 69.128 28.7817C69.2786 28.7478 69.4459 28.7308 69.63 28.7308H82.007V32.0339H69.63Z" fill="white"/>
<path d="M82.005 32.0339C81.8209 32.0339 81.6536 32.017 81.503 31.9831C81.3524 31.9492 81.2773 31.8984 81.2773 31.8306V28.9341C81.2773 28.8664 81.3524 28.8155 81.503 28.7817C81.6536 28.7478 81.8209 28.7308 82.005 28.7308H83.6614C84.8992 28.7308 85.5183 28.5024 85.5183 28.0445C85.5183 27.6553 85.0416 26.9355 84.0879 25.8852C84.0377 25.8174 84.0124 25.7496 84.0124 25.6814C84.0124 25.6141 84.0377 25.5381 84.0879 25.4529L85.5685 23.3696C85.635 23.268 85.7023 23.2171 85.7693 23.2171C85.8358 23.2171 85.8945 23.2423 85.9452 23.2932C86.1455 23.4965 86.3253 23.7467 86.4844 24.0429C86.6432 24.3396 86.777 24.6571 86.886 24.9955C86.9946 25.3348 87.0825 25.6814 87.1494 26.0372C87.2159 26.3934 87.2498 26.7235 87.2498 27.0285C87.2498 28.5362 86.9195 29.7469 86.2588 30.6617C85.5976 31.5765 84.6731 32.0339 83.4855 32.0339H82.005Z" fill="white"/>
<path d="M77.165 34.3974L75.6093 35.9729L74.0781 34.3974L75.6093 32.8223L77.165 34.3974Z" fill="white"/>
<path d="M80.1767 34.3971L78.6459 35.9727L77.0898 34.3971L78.6459 32.822L80.1767 34.3971Z" fill="white"/>
<path d="M0.406372 61.2824H0.801077C1.25198 61.2824 1.63082 61.2316 1.93757 61.1304C2.24432 61.0283 2.49187 60.8984 2.67979 60.7403C2.8677 60.5813 3.00542 60.4006 3.09337 60.1982C3.18089 59.9949 3.22465 59.7859 3.22465 59.57V54.681H5.36678V59.2086C5.36678 59.8176 5.27883 60.3789 5.10379 60.8923C4.92832 61.4062 4.67777 61.8497 4.35213 62.2242C4.02607 62.5982 3.62536 62.8901 3.14957 63.099C2.67335 63.3084 2.13492 63.4131 1.53386 63.4131H0.725568L0.406372 61.2824Z" fill="#F99F1B"/>
<path d="M8.93772 59.8748C8.22382 59.8748 7.7004 59.6497 7.36877 59.1993C7.0367 58.7493 6.87109 58.1246 6.87109 57.3253V50.0962H9.0128V56.907C9.0128 57.2623 9.06299 57.4843 9.16339 57.5729C9.26335 57.6615 9.47615 57.7059 9.80221 57.7059H10.1214V59.8748H8.93772Z" fill="#F99F1B"/>
<path d="M9.66797 57.8392C9.66797 57.7888 9.71816 57.7536 9.81813 57.7345C9.91852 57.7154 10.0189 57.7059 10.1189 57.7059H13.9896C14.2526 57.7059 14.3843 57.6046 14.3843 57.4018C14.3843 57.3001 14.3401 57.2054 14.2526 57.1164L10.6075 53.2542L10.3819 51.2569L16.1128 49.1453L16.4509 51.2947L13.0311 52.6457L15.9249 55.7845C16.1755 56.0387 16.3634 56.3301 16.4886 56.6598C16.6135 56.9895 16.6766 57.3132 16.6766 57.6298C16.6766 57.9217 16.6229 58.2006 16.517 58.4669C16.4101 58.7336 16.2535 58.9712 16.0472 59.1806C15.8404 59.3895 15.574 59.5581 15.2483 59.6845C14.9227 59.8113 14.5469 59.8748 14.1213 59.8748H10.1189C10.0189 59.8748 9.91852 59.8622 9.81813 59.837C9.71816 59.8113 9.66797 59.7735 9.66797 59.7227V57.8392Z" fill="#F99F1B"/>
<path d="M21.7496 57.7059V56.5074C21.7496 56.1395 21.6617 55.8767 21.4866 55.7177C21.3112 55.5596 21.1297 55.4801 20.9418 55.4801C20.6535 55.4801 20.4531 55.5752 20.3403 55.7655C20.2279 55.9557 20.1712 56.1842 20.1712 56.4505C20.1712 56.8562 20.2776 57.1668 20.4909 57.3823C20.7037 57.5982 21.0482 57.7059 21.524 57.7059H21.7496ZM18.1797 61.2827H19.7954C20.2463 61.2827 20.6629 61.1684 21.0452 60.9399C21.427 60.7119 21.6617 60.3565 21.7496 59.8748C21.2108 59.8622 20.7225 59.8053 20.2841 59.7036C19.8456 59.602 19.4698 59.4309 19.1566 59.1898C18.8434 58.9491 18.6023 58.632 18.4332 58.2385C18.2642 57.8458 18.1797 57.351 18.1797 56.7546C18.1797 55.6386 18.4079 54.7859 18.8653 54.196C19.3226 53.6061 20.0399 53.3112 21.0168 53.3112C21.4424 53.3112 21.8341 53.3811 22.1911 53.5206C22.548 53.6604 22.8548 53.8789 23.1118 54.1769C23.3683 54.4749 23.5691 54.8554 23.7133 55.3185C23.857 55.7815 23.9291 56.3428 23.9291 57.0022V59.6463C23.9291 60.1789 23.8192 60.6736 23.6004 61.1302C23.3812 61.5867 23.0899 61.9864 22.7265 62.3287C22.3631 62.6714 21.947 62.9377 21.4772 63.1279C21.0074 63.3182 20.5282 63.4133 20.0399 63.4133H18.4616L18.1797 61.2827Z" fill="#F99F1B"/>
<path d="M30.131 62.7282C30.131 62.4111 30.2404 62.1414 30.4596 61.9198C30.6789 61.6979 30.9453 61.5867 31.2585 61.5867C31.5713 61.5867 31.8407 61.6979 32.0664 61.9198C32.2916 62.1414 32.4044 62.4111 32.4044 62.7282C32.4044 63.0449 32.2916 63.3181 32.0664 63.5462C31.8407 63.7747 31.5713 63.8889 31.2585 63.8889C30.9453 63.8889 30.6789 63.7747 30.4596 63.5462C30.2404 63.3181 30.131 63.0449 30.131 62.7282ZM37.3837 59.8747C36.8702 59.8747 36.5317 59.7414 36.3691 59.4751C36.1936 59.6528 36.0151 59.764 35.8336 59.8083C35.6517 59.8526 35.4042 59.8747 35.0914 59.8747H27.7259C26.9369 59.8747 26.3573 59.6306 25.9879 59.1423C25.6181 58.6541 25.4336 58.0103 25.4336 57.2111V54.6812H27.5757V57.0212C27.5757 57.4778 27.7825 57.7058 28.1957 57.7058H34.4526C35.0035 57.7058 35.2793 57.4652 35.2793 56.983V54.6812H37.4588V57.0212C37.4588 57.4778 37.6343 57.7058 37.9848 57.7058H38.4546V59.8747H37.3837Z" fill="#F99F1B"/>
<path d="M50.217 59.8746C49.616 59.8746 49.1835 59.7161 48.9205 59.399C48.7073 59.6148 48.4662 59.783 48.1972 59.9033C47.9277 60.0236 47.6115 60.084 47.2482 60.084C46.409 60.084 45.7826 59.786 45.3694 59.1896C45.1313 59.4815 44.846 59.7035 44.5144 59.8555C44.1823 60.008 43.8473 60.084 43.5092 60.084C43.1458 60.084 42.8073 60.008 42.4945 59.8555C42.1813 59.7035 41.9244 59.4815 41.724 59.1896C41.5485 59.3929 41.3169 59.5579 41.029 59.6843C40.7407 59.8112 40.3648 59.8746 39.9015 59.8746H38.4548C38.3548 59.8746 38.2545 59.862 38.1541 59.8364C38.0541 59.8112 38.0039 59.7734 38.0039 59.7226V57.8391C38.0039 57.7887 38.0541 57.7535 38.1541 57.7344C38.2545 57.7153 38.3548 57.7057 38.4548 57.7057H39.8264C40.2147 57.7057 40.409 57.4968 40.409 57.078V54.6811H42.5696V57.0971C42.5696 57.3634 42.6383 57.5632 42.7764 57.6961C42.9141 57.8295 43.0707 57.896 43.2462 57.896C43.4212 57.896 43.5843 57.8295 43.7344 57.6961C43.885 57.5632 43.9601 57.3634 43.9601 57.0971V54.6811H46.0833V57.0971C46.0833 57.3634 46.1584 57.5632 46.3086 57.6961C46.4592 57.8295 46.6218 57.896 46.7972 57.896C46.9727 57.896 47.1289 57.8295 47.267 57.6961C47.4047 57.5632 47.4738 57.3634 47.4738 57.0971V54.6811H49.6344V57.2874C49.6468 57.5663 49.8348 57.7057 50.1981 57.7057H51.1377V59.8746H50.217Z" fill="#F99F1B"/>
<path d="M50.6875 57.839C50.6875 57.7886 50.7377 57.7534 50.8377 57.7343C50.9381 57.7152 51.0384 57.7056 51.1384 57.7056H55.0091C55.2721 57.7056 55.4038 57.6044 55.4038 57.4015C55.4038 57.2999 55.3596 57.2052 55.2721 57.1161L51.6271 53.254L51.4014 51.2567L57.1323 49.1451L57.4704 51.2945L54.0506 52.6454L56.9444 55.7843C57.195 56.0384 57.3829 56.3299 57.5082 56.6596C57.633 56.9893 57.6961 57.3129 57.6961 57.6296C57.6961 57.9215 57.6425 58.2004 57.5365 58.4667C57.4297 58.7334 57.2731 58.971 57.0667 59.1804C56.8599 59.3893 56.5935 59.5578 56.2679 59.6842C55.9422 59.8111 55.5664 59.8745 55.1408 59.8745H51.1384C51.0384 59.8745 50.9381 59.8619 50.8377 59.8367C50.7377 59.8111 50.6875 59.7733 50.6875 59.7225V57.839Z" fill="#F99F1B"/>
<path d="M64.1793 57.7059V56.5074C64.1793 56.1395 64.0914 55.8767 63.9163 55.7177C63.7408 55.5596 63.5594 55.4801 63.3715 55.4801C63.0831 55.4801 62.8828 55.5752 62.77 55.7655C62.6576 55.9557 62.6009 56.1842 62.6009 56.4505C62.6009 56.8562 62.7073 57.1668 62.9205 57.3823C63.1333 57.5982 63.4779 57.7059 63.9536 57.7059H64.1793ZM60.6094 61.2827H62.2251C62.676 61.2827 63.0926 61.1684 63.4748 60.9399C63.8567 60.7119 64.0914 60.3565 64.1793 59.8748C63.6405 59.8622 63.1522 59.8053 62.7138 59.7036C62.2753 59.602 61.8995 59.4309 61.5863 59.1898C61.2731 58.9491 61.032 58.632 60.8629 58.2385C60.6939 57.8458 60.6094 57.351 60.6094 56.7546C60.6094 55.6386 60.8376 54.7859 61.295 54.196C61.7523 53.6061 62.4696 53.3112 63.4465 53.3112C63.8721 53.3112 64.2638 53.3811 64.6208 53.5206C64.9777 53.6604 65.2845 53.8789 65.5415 54.1769C65.798 54.4749 65.9988 54.8554 66.143 55.3185C66.2867 55.7815 66.3588 56.3428 66.3588 57.0022V59.6463C66.3588 60.1789 66.2489 60.6736 66.0301 61.1302C65.8109 61.5867 65.5196 61.9864 65.1562 62.3287C64.7928 62.6714 64.3767 62.9377 63.9069 63.1279C63.4371 63.3182 62.9579 63.4133 62.4696 63.4133H60.8912L60.6094 61.2827Z" fill="#F99F1B"/>
<path d="M75.4887 52.8168C75.4887 52.5001 75.5951 52.2269 75.8083 51.9988C76.0211 51.7704 76.2901 51.6561 76.6162 51.6561C76.929 51.6561 77.1984 51.7704 77.424 51.9988C77.6493 52.2269 77.7621 52.5001 77.7621 52.8168C77.7621 53.1339 77.6493 53.4037 77.424 53.6252C77.1984 53.8472 76.929 53.9584 76.6162 53.9584C76.2901 53.9584 76.0211 53.8472 75.8083 53.6252C75.5951 53.4037 75.4887 53.1339 75.4887 52.8168ZM72.8395 52.8168C72.8395 52.5001 72.9489 52.2269 73.1681 51.9988C73.3873 51.7704 73.6538 51.6561 73.9669 51.6561C74.2926 51.6561 74.565 51.7704 74.7842 51.9988C75.003 52.2269 75.1129 52.5001 75.1129 52.8168C75.1129 53.1339 75.003 53.4037 74.7842 53.6252C74.565 53.8472 74.2926 53.9584 73.9669 53.9584C73.6538 53.9584 73.3873 53.8472 73.1681 53.6252C72.9489 53.4037 72.8395 53.1339 72.8395 52.8168ZM81.2197 59.8748C80.7057 59.8748 80.3676 59.7418 80.205 59.4751C80.0295 59.6532 79.8506 59.764 79.6696 59.8083C79.4877 59.853 79.2401 59.8748 78.9274 59.8748H71.5618C70.7724 59.8748 70.1932 59.6306 69.8238 59.1424C69.454 58.6541 69.2695 58.0104 69.2695 57.2115V54.6812H71.4117V57.0213C71.4117 57.4778 71.618 57.7059 72.0316 57.7059H78.2885C78.8394 57.7059 79.1153 57.4652 79.1153 56.983V54.6812H81.2947V57.0213C81.2947 57.4778 81.4698 57.7059 81.8207 57.7059H82.2905V59.8748H81.2197Z" fill="#F99F1B"/>
<path d="M83.9422 62.7092C83.9422 62.3921 84.0486 62.1223 84.2618 61.9008C84.4746 61.6788 84.7436 61.5676 85.0697 61.5676C85.3825 61.5676 85.6519 61.6788 85.8776 61.9008C86.1028 62.1223 86.2156 62.3921 86.2156 62.7092C86.2156 63.0259 86.1028 63.2991 85.8776 63.5271C85.6519 63.7556 85.3825 63.8699 85.0697 63.8699C84.7436 63.8699 84.4746 63.7556 84.2618 63.5271C84.0486 63.2991 83.9422 63.0259 83.9422 62.7092ZM81.8378 57.8388C81.8378 57.7884 81.888 57.7532 81.988 57.7341C82.0884 57.7154 82.1888 57.7059 82.2887 57.7059H84.3931C84.8316 57.7059 85.0508 57.4774 85.0508 57.0209V54.6808H87.193V57.2111C87.193 57.5534 87.1333 57.8836 87.0145 58.2002C86.8952 58.5178 86.7326 58.7997 86.5258 59.0468C86.319 59.2945 86.0749 59.4943 85.793 59.6463C85.5112 59.7983 85.201 59.8744 84.8629 59.8744H82.2887C82.1888 59.8744 82.0884 59.8622 81.988 59.8366C81.888 59.8114 81.8378 59.7731 81.8378 59.7223V57.8388ZM81.293 62.7092C81.293 62.3921 81.4028 62.1223 81.6216 61.9008C81.8413 61.6788 82.1073 61.5676 82.4205 61.5676C82.7461 61.5676 83.0185 61.6788 83.2377 61.9008C83.4566 62.1223 83.5664 62.3921 83.5664 62.7092C83.5664 63.0259 83.4566 63.2991 83.2377 63.5271C83.0185 63.7556 82.7461 63.8699 82.4205 63.8699C82.1073 63.8699 81.8413 63.7556 81.6216 63.5271C81.4028 63.2991 81.293 63.0259 81.293 62.7092Z" fill="#F99F1B"/>
<path d="M92.305 59.8748C92.042 59.8748 91.8163 59.7988 91.6284 59.6467C91.6284 60.2679 91.5125 60.8131 91.2809 61.2827C91.0492 61.7518 90.7484 62.1449 90.3791 62.462C90.0092 62.7791 89.5991 63.0167 89.1482 63.1757C88.6973 63.3338 88.2464 63.4133 87.7955 63.4133H86.9876L86.668 61.2827H87.0627C87.5136 61.2827 87.8928 61.2318 88.1996 61.1302C88.5063 61.0285 88.7539 60.8987 88.9418 60.7405C89.1297 60.5815 89.267 60.4008 89.355 60.1984C89.4425 59.9951 89.4867 59.7862 89.4867 59.5703V54.6812H91.6284V57.1924C91.6408 57.5347 91.8601 57.7059 92.2861 57.7059H92.6057V59.8748H92.305Z" fill="#F99F1B"/>
<path d="M95.234 62.7089C95.234 62.3918 95.3404 62.1221 95.5532 61.9005C95.7665 61.6786 96.0355 61.5674 96.3615 61.5674C96.6743 61.5674 96.9437 61.6786 97.1694 61.9005C97.3946 62.1221 97.5075 62.3918 97.5075 62.7089C97.5075 63.0256 97.3946 63.2988 97.1694 63.5269C96.9437 63.7554 96.6743 63.8696 96.3615 63.8696C96.0355 63.8696 95.7665 63.7554 95.5532 63.5269C95.3404 63.2988 95.234 63.0256 95.234 62.7089ZM92.5848 62.7089C92.5848 62.3918 92.6942 62.1221 92.9134 61.9005C93.1327 61.6786 93.3987 61.5674 93.7123 61.5674C94.0375 61.5674 94.3099 61.6786 94.5296 61.9005C94.7484 62.1221 94.8582 62.3918 94.8582 62.7089C94.8582 63.0256 94.7484 63.2988 94.5296 63.5269C94.3099 63.7554 94.0375 63.8696 93.7123 63.8696C93.3987 63.8696 93.1327 63.7554 92.9134 63.5269C92.6942 63.2988 92.5848 63.0256 92.5848 62.7089ZM92.1523 57.8386C92.1523 57.7882 92.2025 57.753 92.3029 57.7339C92.4033 57.7152 92.5033 57.7056 92.6037 57.7056H95.685C96.1234 57.7056 96.3427 57.4772 96.3427 57.0206V54.6806H98.4848V57.2109C98.4848 57.5532 98.4251 57.8833 98.3063 58.2C98.187 58.5175 98.0244 58.7994 97.8176 59.0466C97.6109 59.2942 97.3667 59.494 97.0849 59.6461C96.803 59.7981 96.4928 59.8741 96.1547 59.8741H92.6037C92.5033 59.8741 92.4033 59.862 92.3029 59.8363C92.2025 59.8111 92.1523 59.7729 92.1523 59.7221V57.8386Z" fill="#F99F1B"/>
<path d="M108.726 59.8748C108.187 59.8748 107.771 59.7987 107.477 59.6467C107.182 59.4942 106.916 59.3105 106.678 59.0946C106.465 59.3357 106.202 59.5259 105.889 59.6654C105.576 59.8053 105.2 59.8748 104.761 59.8748H100.083L99.8009 57.725H104.724C104.811 57.725 104.88 57.7028 104.93 57.6585C104.981 57.6142 105.005 57.5603 105.005 57.4969C105.005 57.4083 104.968 57.3253 104.893 57.2493L101.567 53.6539L103.07 52.1127L107.505 56.9261C107.755 57.205 107.974 57.4048 108.162 57.5251C108.35 57.6459 108.538 57.7059 108.726 57.7059H108.858V59.8748H108.726Z" fill="#F99F1B"/>
<path d="M112.897 55.3658C112.609 55.3658 112.367 55.4609 112.174 55.6512C111.979 55.8415 111.882 56.146 111.882 56.5643C111.882 56.9322 111.982 57.2146 112.183 57.4109C112.383 57.6077 112.621 57.7059 112.897 57.7059C113.235 57.7059 113.498 57.5981 113.686 57.3822C113.874 57.1668 113.968 56.8944 113.968 56.5643C113.968 56.2728 113.877 56 113.695 55.7463C113.514 55.4926 113.247 55.3658 112.897 55.3658ZM108.406 57.8388C108.406 57.7884 108.456 57.7532 108.556 57.7341C108.657 57.7154 108.757 57.7059 108.857 57.7059H109.045C109.396 57.7059 109.656 57.6233 109.825 57.4582C109.994 57.2936 110.079 57.0147 110.079 56.6212C110.079 56.2029 110.144 55.7911 110.276 55.3849C110.407 54.9792 110.595 54.6143 110.839 54.2911C111.084 53.9675 111.378 53.7077 111.723 53.511C112.067 53.3146 112.446 53.216 112.859 53.216C113.31 53.216 113.717 53.3207 114.081 53.5301C114.444 53.739 114.751 54.0122 115.001 54.348C115.252 54.6842 115.446 55.0587 115.584 55.4705C115.722 55.8827 115.791 56.2919 115.791 56.6976C115.791 57.1416 115.718 57.5569 115.574 57.9435C115.43 58.3305 115.229 58.6667 114.973 58.9517C114.716 59.2371 114.406 59.4625 114.043 59.6272C113.679 59.7922 113.285 59.8748 112.859 59.8748C111.97 59.8748 111.318 59.5894 110.905 59.0186C110.542 59.5894 109.959 59.8748 109.158 59.8748H108.857C108.757 59.8748 108.657 59.8622 108.556 59.8365C108.456 59.8113 108.406 59.7731 108.406 59.7223V57.8388Z" fill="#F99F1B"/>
<path d="M128.323 59.38C128.323 59.9382 128.226 60.4612 128.032 60.9495C127.838 61.4377 127.572 61.8656 127.233 62.234C126.895 62.6015 126.494 62.8899 126.031 63.0993C125.567 63.3086 125.066 63.4133 124.528 63.4133H122.404C121.766 63.4133 121.214 63.3182 120.751 63.1279C120.288 62.9377 119.902 62.6714 119.596 62.3287C119.288 61.9864 119.063 61.5802 118.919 61.1115C118.775 60.6419 118.703 60.128 118.703 59.5703V56.07H120.845V59.5703C120.845 59.8114 120.898 60.0329 121.005 60.2362C121.111 60.4391 121.249 60.6167 121.418 60.7688C121.587 60.9208 121.778 61.0381 121.991 61.1206C122.204 61.2032 122.423 61.2444 122.649 61.2444H124.434C124.646 61.2444 124.866 61.2092 125.091 61.1397C125.317 61.0698 125.52 60.9686 125.702 60.8357C125.883 60.7023 126.034 60.5433 126.153 60.3596C126.272 60.1758 126.332 59.976 126.332 59.7606C126.332 59.5321 126.269 59.3418 126.144 59.1898C126.018 59.0377 125.824 58.9617 125.561 58.9617H122.968V56.3932C122.968 55.9874 123.05 55.6069 123.212 55.2516C123.375 54.8967 123.591 54.5861 123.861 54.3194C124.13 54.0531 124.44 53.8437 124.791 53.6917C125.141 53.5397 125.505 53.4636 125.881 53.4636H128.004V55.6321H125.918C125.392 55.6321 125.129 55.924 125.129 56.5074V57.0213H126.125C126.926 57.0213 127.493 57.2337 127.825 57.6581C128.157 58.0834 128.323 58.6572 128.323 59.38Z" fill="#F99F1B"/>
<path d="M131.891 59.8748C131.177 59.8748 130.654 59.6497 130.322 59.1993C129.99 58.7493 129.824 58.1246 129.824 57.3253V50.0962H131.966V56.907C131.966 57.2623 132.016 57.4843 132.117 57.5729C132.216 57.6615 132.429 57.7059 132.755 57.7059H133.075V59.8748H131.891Z" fill="#F99F1B"/>
<path d="M139.258 56.6784C139.258 56.9325 139.192 57.1892 139.06 57.449C138.929 57.7087 138.757 57.9598 138.544 58.2005C138.744 58.2765 138.929 58.3303 139.098 58.3621C139.267 58.3938 139.42 58.4098 139.558 58.4098C139.784 58.4098 139.969 58.3369 140.113 58.1909C140.256 58.0449 140.328 57.8642 140.328 57.6488C140.328 57.3821 140.241 57.1193 140.065 56.8591C139.89 56.5993 139.57 56.2218 139.107 55.727C139.207 56.0316 139.258 56.3487 139.258 56.6784ZM135.5 56.1458C135.5 56.3487 135.609 56.545 135.828 56.7357C136.048 56.9255 136.289 57.0906 136.552 57.23C136.765 57.1158 136.934 56.9733 137.059 56.8022C137.184 56.631 137.247 56.4312 137.247 56.2027C137.247 55.9495 137.156 55.7557 136.975 55.6228C136.793 55.4894 136.596 55.423 136.383 55.423C136.169 55.423 135.97 55.4894 135.782 55.6228C135.594 55.7557 135.5 55.9303 135.5 56.1458ZM132.625 57.839C132.625 57.7882 132.675 57.7535 132.775 57.7344C132.876 57.7152 132.976 57.7057 133.076 57.7057H134.241C134.178 57.6553 134.125 57.6045 134.081 57.5537C134.037 57.5028 133.996 57.452 133.959 57.4012C133.783 57.224 133.655 57.0367 133.574 56.84C133.492 56.6436 133.452 56.4377 133.452 56.2218C133.452 55.8413 133.539 55.4834 133.715 55.1471C133.89 54.8109 134.115 54.519 134.391 54.2718C134.667 54.0247 134.976 53.8279 135.321 53.6819C135.666 53.5364 136.013 53.4634 136.364 53.4634C136.489 53.4634 136.611 53.47 136.73 53.4826C136.85 53.4952 136.965 53.5204 137.078 53.5586L138.6 52.1694L140.93 54.7379C141.356 55.1945 141.713 55.6606 142.001 56.1362C142.289 56.6119 142.433 57.1288 142.433 57.6866C142.433 58.1562 142.342 58.5619 142.16 58.9042C141.979 59.2469 141.741 59.5323 141.447 59.7604C141.152 59.9888 140.814 60.1565 140.432 60.2647C140.05 60.372 139.658 60.4263 139.258 60.4263C138.757 60.4263 138.281 60.3468 137.83 60.1882C137.378 60.0297 136.946 59.8238 136.533 59.5701C136.082 59.7729 135.65 59.8746 135.237 59.8746H133.076C132.976 59.8746 132.876 59.862 132.775 59.8364C132.675 59.8112 132.625 59.7729 132.625 59.7221V57.839Z" fill="#F99F1B"/>
<path d="M148.842 62.7282C148.842 62.4111 148.951 62.1414 149.17 61.9198C149.39 61.6979 149.656 61.5867 149.969 61.5867C150.282 61.5867 150.551 61.6979 150.777 61.9198C151.002 62.1414 151.115 62.4111 151.115 62.7282C151.115 63.0449 151.002 63.3181 150.777 63.5462C150.551 63.7747 150.282 63.8889 149.969 63.8889C149.656 63.8889 149.39 63.7747 149.17 63.5462C148.951 63.3181 148.842 63.0449 148.842 62.7282ZM155.982 57.2111C155.982 58.0737 155.797 58.7332 155.427 59.1897C155.058 59.6462 154.46 59.8747 153.633 59.8747H146.286C145.46 59.8747 144.861 59.6402 144.492 59.1706C144.122 58.7014 143.938 58.0481 143.938 57.2111V54.6812H146.08V57.0212C146.08 57.4778 146.292 57.7058 146.718 57.7058H153.163C153.602 57.7058 153.821 57.4778 153.821 57.0212V54.6812H155.982V57.2111Z" fill="#F99F1B"/>
<path d="M159.551 59.8745C158.837 59.8745 158.314 59.6495 157.982 59.199C157.65 58.749 157.484 58.1244 157.484 57.3251V50.096H159.626V56.9068C159.626 57.2621 159.676 57.4841 159.777 57.5727C159.877 57.6613 160.089 57.7056 160.415 57.7056H160.735V59.8745H159.551Z" fill="#F99F1B"/>
<path d="M163.851 52.1127C163.851 51.796 163.958 51.5228 164.171 51.2947C164.384 51.0662 164.653 50.952 164.979 50.952C165.291 50.952 165.561 51.0662 165.787 51.2947C166.012 51.5228 166.125 51.796 166.125 52.1127C166.125 52.4298 166.012 52.6995 165.787 52.9211C165.561 53.143 165.291 53.2542 164.979 53.2542C164.653 53.2542 164.384 53.143 164.171 52.9211C163.958 52.6995 163.851 52.4298 163.851 52.1127ZM161.202 52.1127C161.202 51.796 161.311 51.5228 161.531 51.2947C161.75 51.0662 162.016 50.952 162.329 50.952C162.655 50.952 162.927 51.0662 163.147 51.2947C163.366 51.5228 163.475 51.796 163.475 52.1127C163.475 52.4298 163.366 52.6995 163.147 52.9211C162.927 53.143 162.655 53.2542 162.329 53.2542C162.016 53.2542 161.75 53.143 161.531 52.9211C161.311 52.6995 161.202 52.4298 161.202 52.1127ZM165.561 59.8748C165.197 59.8748 164.872 59.7288 164.584 59.4369C164.446 59.5768 164.296 59.6841 164.133 59.7605C163.97 59.8365 163.782 59.8748 163.569 59.8748H160.732C160.632 59.8748 160.532 59.8622 160.431 59.8365C160.331 59.8113 160.281 59.7731 160.281 59.7223V57.8388C160.281 57.7884 160.331 57.7532 160.431 57.7341C160.532 57.7154 160.632 57.7059 160.732 57.7059H162.874C163.287 57.7059 163.494 57.4774 163.494 57.0208V54.6812H165.636V57.0208C165.636 57.4774 165.849 57.7059 166.275 57.7059H167.102V59.8748H165.561Z" fill="#F99F1B"/>
<path d="M166.652 57.839C166.652 57.7886 166.703 57.7534 166.803 57.7343C166.903 57.7152 167.003 57.7056 167.103 57.7056H170.974C171.237 57.7056 171.369 57.6044 171.369 57.4015C171.369 57.2999 171.324 57.2052 171.237 57.1161L167.592 53.254L167.366 51.2567L173.097 49.1451L173.435 51.2945L170.015 52.6454L172.909 55.7843C173.16 56.0384 173.348 56.3299 173.473 56.6596C173.598 56.9893 173.661 57.3129 173.661 57.6296C173.661 57.9215 173.607 58.2004 173.501 58.4667C173.395 58.7334 173.238 58.971 173.032 59.1804C172.825 59.3893 172.558 59.5578 172.233 59.6842C171.907 59.8111 171.531 59.8745 171.105 59.8745H167.103C167.003 59.8745 166.903 59.8619 166.803 59.8367C166.703 59.8111 166.652 59.7733 166.652 59.7225V57.839Z" fill="#F99F1B"/>
<path d="M180.555 59.8746C180.292 59.8746 180.066 59.7985 179.878 59.6465C179.878 60.2677 179.763 60.8128 179.531 61.2824C179.299 61.7515 179.001 62.1447 178.638 62.4618C178.275 62.7789 177.865 63.0165 177.408 63.1755C176.95 63.3336 176.496 63.4131 176.045 63.4131H175.238L174.918 61.2824H175.313C175.764 61.2824 176.143 61.2316 176.45 61.1299C176.756 61.0283 177.004 60.8984 177.192 60.7403C177.38 60.5813 177.517 60.4006 177.605 60.1982C177.692 59.9949 177.737 59.7859 177.737 59.57V54.681H179.878V57.2304C179.916 57.5475 180.135 57.7056 180.536 57.7056H180.856V59.8746H180.555Z" fill="#F99F1B"/>
<path d="M187.584 52.1125C187.584 51.7958 187.69 51.5226 187.903 51.2945C188.116 51.066 188.385 50.9518 188.711 50.9518C189.024 50.9518 189.294 51.066 189.519 51.2945C189.744 51.5226 189.857 51.7958 189.857 52.1125C189.857 52.4296 189.744 52.6993 189.519 52.9209C189.294 53.1428 189.024 53.254 188.711 53.254C188.385 53.254 188.116 53.1428 187.903 52.9209C187.69 52.6993 187.584 52.4296 187.584 52.1125ZM186.268 49.8106C186.268 49.4935 186.378 49.2207 186.598 48.9922C186.816 48.7642 187.083 48.6499 187.396 48.6499C187.709 48.6499 187.979 48.7642 188.204 48.9922C188.429 49.2207 188.542 49.4935 188.542 49.8106C188.542 50.1277 188.429 50.3975 188.204 50.619C187.979 50.841 187.709 50.9518 187.396 50.9518C187.083 50.9518 186.816 50.841 186.598 50.619C186.378 50.3975 186.268 50.1277 186.268 49.8106ZM184.935 52.1125C184.935 51.7958 185.044 51.5226 185.263 51.2945C185.482 51.066 185.749 50.9518 186.062 50.9518C186.388 50.9518 186.66 51.066 186.879 51.2945C187.098 51.5226 187.208 51.7958 187.208 52.1125C187.208 52.4296 187.098 52.6993 186.879 52.9209C186.66 53.1428 186.388 53.254 186.062 53.254C185.749 53.254 185.482 53.1428 185.263 52.9209C185.044 52.6993 184.935 52.4296 184.935 52.1125ZM180.406 57.8386C180.406 57.7882 180.456 57.753 180.557 57.7339C180.657 57.7152 180.757 57.7056 180.857 57.7056H182.229C182.617 57.7056 182.811 57.4963 182.811 57.078V54.681H184.972V57.0966C184.972 57.3634 185.041 57.5627 185.179 57.6961C185.316 57.829 185.473 57.8959 185.649 57.8959C185.824 57.8959 185.987 57.829 186.137 57.6961C186.287 57.5627 186.362 57.3634 186.362 57.0966V54.681H188.486V57.0966C188.486 57.3634 188.561 57.5627 188.711 57.6961C188.862 57.829 189.024 57.8959 189.2 57.8959C189.375 57.8959 189.532 57.829 189.669 57.6961C189.807 57.5627 189.876 57.3634 189.876 57.0966V54.681H192.037V57.2109C192.037 57.6296 191.987 58.0132 191.887 58.362C191.786 58.7108 191.636 59.0119 191.436 59.2655C191.235 59.5192 190.985 59.719 190.684 59.865C190.384 60.0105 190.039 60.0835 189.651 60.0835C188.811 60.0835 188.185 59.7859 187.772 59.1895C187.534 59.4814 187.249 59.703 186.917 59.8554C186.585 60.0075 186.25 60.0835 185.912 60.0835C185.548 60.0835 185.21 60.0075 184.897 59.8554C184.584 59.703 184.327 59.4814 184.127 59.1895C183.951 59.3924 183.72 59.5575 183.431 59.6839C183.143 59.8111 182.767 59.8746 182.304 59.8746H180.857C180.757 59.8746 180.657 59.862 180.557 59.8363C180.456 59.8111 180.406 59.7729 180.406 59.7221V57.8386Z" fill="#F99F1B"/>
<path d="M195.606 59.8748C194.892 59.8748 194.368 59.6497 194.037 59.1993C193.705 58.7493 193.539 58.1246 193.539 57.3253V50.0962H195.681V56.907C195.681 57.2623 195.731 57.4843 195.831 57.5729C195.931 57.6615 196.144 57.7059 196.47 57.7059H196.789V59.8748H195.606Z" fill="#F99F1B"/>
<path d="M198.102 52.1127C198.102 51.796 198.212 51.5228 198.431 51.2947C198.65 51.0662 198.917 50.952 199.23 50.952C199.542 50.952 199.812 51.0662 200.038 51.2947C200.263 51.5228 200.376 51.796 200.376 52.1127C200.376 52.4298 200.263 52.6995 200.038 52.9211C199.812 53.143 199.542 53.2542 199.23 53.2542C198.917 53.2542 198.65 53.143 198.431 52.9211C198.212 52.6995 198.102 52.4298 198.102 52.1127ZM196.336 57.8388C196.336 57.7884 196.386 57.7532 196.487 57.7341C196.587 57.7154 196.687 57.7059 196.787 57.7059H198.891C199.33 57.7059 199.549 57.4774 199.549 57.0208V54.6812H201.691V57.2111C201.691 57.5534 201.631 57.8835 201.513 58.2006C201.393 58.5177 201.231 58.7996 201.024 59.0472C200.817 59.2944 200.573 59.4942 200.291 59.6463C200.009 59.7983 199.7 59.8748 199.361 59.8748H196.787C196.687 59.8748 196.587 59.8622 196.487 59.8365C196.386 59.8113 196.336 59.7731 196.336 59.7223V57.8388Z" fill="#F99F1B"/>
</svg>
