<?xml version="1.0" encoding="UTF-8"?>
<svg width="181" height="49" viewBox="0 0 181 49" fill="none" xmlns="http://www.w3.org/2000/svg">
<path d="M161.804 45.1015V45.7253C161.784 45.7046 161.761 45.6809 161.741 45.6602C160.73 46.6653 159.772 47.7266 158.753 48.7229H158.744C157.627 47.635 156.576 46.4761 155.477 45.3705C154.371 46.4732 153.311 47.6232 152.206 48.7229H152.197C151.071 47.6291 150.015 46.4643 148.906 45.3498C150.006 44.2294 151.089 43.0883 152.191 41.9708L155.474 45.3321C156.573 44.2146 157.653 43.0794 158.747 41.959C159.755 43.0173 160.777 44.0579 161.801 45.1015H161.804Z" fill="#F99F1B"/>
<path d="M152.873 32.6112C155.22 34.8491 158.8 35.9193 161.874 34.7604C163.803 34.0391 165.009 32.221 166.141 30.5773C166.456 28.4488 166.663 26.2937 166.825 24.1445C166.51 24.3012 166.204 24.4933 166.066 24.8392C165.18 26.4149 164.036 27.9344 162.44 28.7977C159.559 30.2492 155.893 30.0186 153.292 28.0586C152.013 27.1274 151.436 25.4334 151.609 23.8696C151.73 21.3213 152.804 18.971 153.843 16.6977C155.298 14.1583 157.296 12.0091 159.354 9.97515C161.127 8.52658 162.974 7.17261 164.767 5.74769C164.198 3.91481 163.641 2.07602 163.081 0.240185H163.061C159.218 3.42999 155.399 6.81491 152.712 11.1192C150.192 15.1309 148.988 20.0116 149.473 24.7653C149.761 27.6477 150.795 30.5684 152.873 32.6112Z" fill="#16687E"/>
<path d="M164.9 9.2213C160.896 11.1458 157.64 14.377 154.996 17.957C154.317 18.8824 153.887 19.9703 153.645 21.0966C154 21.2621 154.516 21.8889 154.805 21.2888C157.077 18.0576 160.356 15.7162 163.838 14.0282C168.803 11.6602 174.276 10.8591 179.62 9.91307C180.087 8.23687 180.581 6.56658 181.017 4.88151C175.512 5.67675 169.975 6.81786 164.9 9.2213Z" fill="#16687E"/>
<path d="M167.517 14.8856C167.107 16.3904 166.573 17.8715 166.365 19.4265C166.298 19.9645 166.241 20.6976 166.821 20.9696C168.824 22.3236 170.813 23.7603 172.389 25.6346C174.598 28.313 176.535 31.5176 176.676 35.1183C176.901 37.8824 176.968 40.7233 176.148 43.4017C175.946 43.9427 176.474 44.1999 176.847 44.395C178.14 42.6833 178.446 40.4691 178.74 38.3879C179.37 33.5781 178.784 28.4726 176.362 24.2333C174.269 20.3784 170.906 17.5019 167.517 14.8856Z" fill="#16687E"/>
<path d="M170.685 33.6312C170.142 31.621 169.545 29.6166 168.849 27.6566C168.716 27.6093 168.448 27.5147 168.315 27.4674C168.217 30.5597 166.912 33.7258 164.432 35.5853C162.322 37.1078 159.606 37.2586 157.12 37.0162C154.548 36.6791 152.594 34.7014 150.969 32.7917C148.09 29.4807 146.794 25.0699 146.275 20.7449C144.289 20.7508 142.302 20.7449 140.316 20.7508V20.8425C141.073 26.7461 144.797 31.8131 149.211 35.4789C151.719 37.4123 154.444 39.2629 157.582 39.8778C160.7 40.5223 164.121 40.5578 167.022 39.0678C169.04 38.0538 170.538 35.946 170.685 33.6312Z" fill="#16687E"/>
<path d="M171.208 26.4593C171.739 29.0106 171.99 31.6475 171.794 34.2491C171.257 37.5039 169.288 40.4188 166.693 42.3315C165.183 43.4608 163.532 44.3802 161.8 45.1015V45.1021L161.371 45.2877L161.8 45.7244V45.7253C162.782 46.7215 163.754 47.7207 164.733 48.7229H164.756C168.22 46.822 171.456 44.055 172.983 40.2532C174.762 35.807 173.994 30.6868 171.993 26.4564C171.797 26.4564 171.404 26.4593 171.208 26.4593Z" fill="#16687E"/>
<path d="M161.116 27.7098C163.229 27.429 164.814 25.1822 164.41 23.039C164.11 20.7124 161.592 19.0687 159.404 19.79C157.496 20.3162 156.211 22.4507 156.613 24.4343C156.936 26.5362 159.069 28.0942 161.116 27.7098Z" fill="#F99F1B"/>
<path d="M6.08218 21.576C6.08218 21.3454 5.86827 21.0515 5.44045 20.6941L4.08974 19.5699V19.8986C4.08974 20.5788 4.21906 21.1237 4.47801 21.5328C4.73695 21.9417 5.08019 22.1465 5.508 22.1465C5.89079 22.1465 6.08218 21.9565 6.08218 21.576ZM7.9733 21.8007C7.78191 21.8007 7.5934 21.7746 7.40778 21.7229C7.22188 21.6712 7.06714 21.5819 6.9433 21.4548C6.9433 22.3541 6.81686 23.0198 6.5634 23.452C6.31024 23.8845 5.90205 24.1006 5.33913 24.1006C4.91131 24.1006 4.55682 23.9794 4.27536 23.7376C3.9939 23.4955 3.77162 23.1928 3.60851 22.8297C3.44512 22.4664 3.32994 22.0658 3.26239 21.6277C3.19484 21.1899 3.16107 20.7692 3.16107 20.3654H2.48556C2.26011 20.3654 2.04649 20.4029 1.84384 20.478C1.64119 20.5531 1.53986 20.7402 1.53986 21.04C1.53986 21.2818 1.54535 21.5358 1.55689 21.8007C1.56786 22.0658 1.5823 22.3567 1.59904 22.6739C1.61607 22.9908 1.63541 23.3453 1.65822 23.7376C1.68045 24.1293 1.69748 24.5674 1.70874 25.0517C1.51734 25.386 1.3681 25.6538 1.26129 25.8558C1.15419 26.0574 1.0699 26.2102 1.00812 26.314C0.946053 26.4177 0.898133 26.4869 0.864647 26.5215C0.830871 26.5561 0.797096 26.5732 0.763321 26.5732C0.706741 26.5732 0.672966 26.4754 0.661996 26.2794C0.57164 25.1264 0.48446 24.1237 0.400166 23.2705C0.315584 22.4173 0.273438 21.7489 0.273438 21.2647C0.273438 20.7692 0.346472 20.3394 0.49312 19.9763C0.63919 19.6133 0.847614 19.3165 1.11782 19.0859C1.38802 18.8553 1.70874 18.6854 2.08026 18.5757C2.45179 18.4663 2.86806 18.4057 3.32994 18.3942L3.71821 17.2182C5.01264 18.2558 5.74443 18.8207 5.91331 18.913C6.25106 19.132 6.59718 19.2935 6.95167 19.3972C7.30646 19.5007 7.64681 19.5527 7.9733 19.5527V21.8007Z" fill="#16687E"/>
<path d="M7.97397 21.8008C7.85013 21.8008 7.73754 21.7893 7.63622 21.7662C7.53489 21.7431 7.48438 21.7085 7.48438 21.6624V19.6912C7.48438 19.6451 7.53489 19.6105 7.63622 19.5874C7.73754 19.5644 7.85013 19.5528 7.97397 19.5528H11.9718V21.8008H7.97397Z" fill="#16687E"/>
<path d="M16.277 21.8008C15.9392 21.8008 15.6041 21.7 15.2724 21.4984C14.9401 21.2964 14.7066 21.0286 14.5715 20.694C14.4026 21.0053 14.1549 21.2678 13.8287 21.4809C13.5019 21.6944 13.187 21.8008 12.883 21.8008H11.9711C11.8475 21.8008 9.42526 21.7893 9.32393 21.7662C9.22261 21.7431 9.17209 21.7085 9.17209 21.6624V19.6912C9.17209 19.6451 9.22261 19.6105 9.32393 19.5874C9.42526 19.5644 11.8475 19.5528 11.9711 19.5528H12.866C13.6991 19.5528 14.1157 19.1549 14.1157 18.3597C14.1157 17.9446 14.1044 17.4604 14.0819 16.907C14.0591 16.3539 14.0253 15.7257 13.9806 15.0221C13.9355 14.296 13.8931 13.7139 13.8538 13.2758C13.8143 12.8377 13.7779 12.5379 13.7441 12.3765L15.3988 10.7858C15.4889 10.6935 15.5339 10.7107 15.5339 10.8375V18.3251C15.5339 19.1437 15.9335 19.5528 16.7328 19.5528H17.7966V21.8008H16.277Z" fill="#16687E"/>
<path d="M17.7982 21.8008C17.6743 21.8008 17.5618 21.7893 17.4604 21.7662C17.3591 21.7431 17.3086 21.7085 17.3086 21.6624V19.6912C17.3086 19.6451 17.3591 19.6105 17.4604 19.5874C17.5618 19.5644 17.6743 19.5528 17.7982 19.5528H21.5074V21.8008H17.7982Z" fill="#16687E"/>
<path d="M26.0813 12.6754L25.0513 13.7473L24.0043 12.6754L25.0513 11.6032L26.0813 12.6754ZM25.2877 16.8553C25.2312 16.7284 25.1581 16.5957 25.0681 16.4573C24.978 16.319 24.8741 16.1954 24.7557 16.0857C24.6376 15.9764 24.5051 15.8841 24.3591 15.809C24.2124 15.7342 24.0606 15.6964 23.903 15.6964C23.7003 15.6964 23.5286 15.7659 23.388 15.9039C23.2471 16.0423 23.1769 16.1865 23.1769 16.3364C23.1769 16.74 23.5652 16.9416 24.342 16.9416C24.4997 16.9416 24.657 16.933 24.8149 16.9156C24.9725 16.8984 25.1298 16.8783 25.2877 16.8553ZM24.0565 12.6754L23.0098 13.7473L21.9798 12.6754L23.0098 11.6032L24.0565 12.6754ZM25.4228 19.1895C25.5579 19.1319 25.6394 19.0225 25.6676 18.8611C25.6956 18.6997 25.693 18.5385 25.6593 18.3768C25.4338 18.423 25.1694 18.4661 24.8654 18.5066C24.5617 18.5471 24.2407 18.5669 23.903 18.5669C22.7549 18.5669 22.1807 18.1406 22.1807 17.2875C22.1807 16.9992 22.2229 16.6622 22.3075 16.2758C22.3917 15.8897 22.5211 15.5235 22.6957 15.1779C22.8701 14.832 23.0895 14.5378 23.3542 14.2957C23.6186 14.0539 23.931 13.9327 24.2915 13.9327C24.7306 13.9327 25.0961 14.077 25.3891 14.3649C25.6815 14.6531 25.915 15.0135 26.0897 15.4457C26.264 15.8779 26.3908 16.3394 26.4696 16.8292C26.5484 17.3191 26.5879 17.7658 26.5879 18.1693C26.5879 18.8957 26.495 19.4922 26.3094 19.959C26.1235 20.4258 25.8504 20.7977 25.4904 21.0744C25.1298 21.3511 24.6908 21.5412 24.1732 21.645C23.6553 21.7488 23.0644 21.8008 22.4001 21.8008H21.5052C21.3814 21.8008 21.2688 21.7893 21.1675 21.7659C21.0661 21.7431 21.0156 21.7085 21.0156 21.6624V19.6909C21.0156 19.6451 21.0661 19.6105 21.1675 19.5871C21.2688 19.5644 21.3814 19.5528 21.5052 19.5528H22.7211C24.0606 19.5528 24.961 19.4316 25.4228 19.1895Z" fill="#16687E"/>
<path d="M30.0301 21.8008C29.591 21.8008 29.2308 21.7115 28.9493 21.5326C28.6678 21.3541 28.4427 21.1235 28.2741 20.8409C28.1052 20.5586 27.984 20.2443 27.9109 19.8987C27.8376 19.5528 27.7955 19.2129 27.7842 18.8785C27.7617 18.5096 27.7447 18.0428 27.7337 17.4775C27.7224 16.9129 27.6999 16.3018 27.6661 15.6447C27.6096 14.7572 27.5536 14.0223 27.4973 13.4399C27.4407 12.8581 27.4014 12.4401 27.3789 12.1864L28.8142 10.9587C28.9718 10.8319 29.0677 10.7683 29.1014 10.7683C29.1462 10.7683 29.169 10.8434 29.169 10.993V18.3251C29.169 19.1437 29.619 19.5528 30.5197 19.5528H31.2628V21.8008H30.0301Z" fill="#16687E"/>
<path d="M31.263 21.8008C31.1392 21.8008 31.0266 21.7893 30.9253 21.7662C30.824 21.7431 30.7734 21.7085 30.7734 21.6624V19.6912C30.7734 19.6451 30.824 19.6105 30.9253 19.5874C31.0266 19.5644 31.1392 19.5528 31.263 19.5528H38.725V21.8008H31.263Z" fill="#16687E"/>
<path d="M39.1983 17.0844L37.9319 18.3638L36.6992 17.0844L37.9319 15.8392L39.1983 17.0844ZM38.7231 21.8008C38.5996 21.8008 38.4867 21.7895 38.3854 21.7662C38.2841 21.7431 38.2335 21.7088 38.2335 21.6624V19.6912C38.2335 19.6454 38.2841 19.6105 38.3854 19.5874C38.4867 19.5644 38.5996 19.5528 38.7231 19.5528H39.8377C40.6705 19.5528 41.0871 19.3973 41.0871 19.086C41.0871 18.8209 40.7664 18.331 40.1247 17.6162C40.0909 17.5701 40.0741 17.524 40.0741 17.4778C40.0741 17.4317 40.0909 17.38 40.1247 17.322L41.1209 15.9042C41.1659 15.835 41.2109 15.8005 41.256 15.8005C41.301 15.8005 41.3406 15.8176 41.3743 15.8525C41.5094 15.9905 41.6301 16.1608 41.7372 16.3624C41.8443 16.5644 41.9341 16.7805 42.0074 17.0108C42.0804 17.2416 42.1396 17.4778 42.1846 17.7197C42.2297 17.9621 42.2522 18.1868 42.2522 18.3943C42.2522 19.4204 42.0299 20.2443 41.5854 20.8669C41.1405 21.4895 40.5187 21.8008 39.7193 21.8008H38.7231Z" fill="#16687E"/>
<path d="M62.5861 19.7174C62.5861 20.6513 62.3944 21.5272 62.0119 22.3458C61.8993 22.5879 61.7613 22.8327 61.5982 23.0807C61.4348 23.3285 61.2691 23.5534 61.1002 23.755C60.9314 23.9567 60.7763 24.121 60.6358 24.2478C60.4949 24.3747 60.3965 24.4382 60.3402 24.4382C59.9799 24.4382 59.5942 24.4235 59.1834 24.3951C58.7729 24.3661 58.3928 24.3286 58.0437 24.2824C57.695 24.2363 57.4049 24.1816 57.1742 24.1184C56.9436 24.0548 56.8281 23.9886 56.8281 23.9194C56.8281 23.8961 56.8677 23.8677 56.9462 23.8328C57.4979 23.6368 58.0437 23.3775 58.5841 23.055C59.1245 22.7319 59.6113 22.386 60.0448 22.0174C60.4781 21.6481 60.8269 21.2795 61.0916 20.9105C61.356 20.5416 61.4885 20.2075 61.4885 19.9078C61.4885 19.7925 61.4403 19.6396 61.345 19.4492C61.2492 19.2592 61.1254 19.0602 60.9735 18.8527C60.8214 18.6454 60.6583 18.4438 60.4839 18.2475C60.3093 18.0518 60.1375 17.8845 59.9686 17.7461L60.7963 15.965C60.8185 15.9074 60.8523 15.8787 60.8976 15.8787C60.9314 15.8787 60.9651 15.8958 60.9986 15.9304C62.0569 17.0142 62.5861 18.2765 62.5861 19.7174Z" fill="#16687E"/>
<path d="M64.6064 19.8121C64.6064 20.2503 64.3925 20.9305 63.9647 21.8525C63.8408 22.0947 63.762 22.2156 63.7283 22.2156C63.6607 22.2156 63.5989 21.9448 63.5426 21.4029L62.7491 12.2036L64.3195 10.8721C64.4092 10.7799 64.4768 10.7338 64.5221 10.7338C64.5781 10.7338 64.6064 10.797 64.6064 10.9238V19.8121ZM66.1093 8.65847C66.1093 8.70488 66.0559 8.81426 65.9488 8.9872C65.8417 9.16014 65.6927 9.34461 65.5013 9.54032C65.3099 9.73661 65.0735 9.91222 64.7923 10.068C64.5106 10.2235 64.1953 10.3013 63.8466 10.3013C63.6777 10.3013 63.506 10.2782 63.3316 10.2321C63.157 10.1863 62.9939 10.1313 62.8417 10.068C62.6899 10.0047 62.5574 9.94976 62.4451 9.90364C62.3325 9.85782 62.2537 9.83447 62.2087 9.83447C62.1411 9.83447 62.0793 9.86048 62.0231 9.91222C61.9668 9.96395 61.9131 10.0219 61.8625 10.0852C61.8117 10.1487 61.7586 10.2064 61.702 10.2581C61.646 10.3098 61.584 10.3358 61.5164 10.3358C61.4038 10.3358 61.3475 10.2726 61.3475 10.1458C61.3475 10.0881 61.3842 9.97873 61.4572 9.81702C61.5306 9.65591 61.6178 9.48858 61.7191 9.31564C61.8204 9.1427 61.9275 8.99016 62.0398 8.85742C62.1524 8.72498 62.2482 8.65847 62.327 8.65847C62.4055 8.65847 62.5069 8.68744 62.6307 8.74508C62.7546 8.80273 62.8951 8.86333 63.053 8.9266C63.2104 8.99016 63.3821 9.05076 63.568 9.10811C63.7537 9.16605 63.9534 9.19473 64.1673 9.19473C64.3925 9.19473 64.6035 9.16014 64.8007 9.09097C64.9973 9.02179 65.1748 8.94374 65.3324 8.85742C65.4901 8.7711 65.6223 8.69305 65.7294 8.62388C65.8362 8.5547 65.9176 8.52041 65.9742 8.52041C66.0642 8.52041 66.1093 8.56653 66.1093 8.65847Z" fill="#16687E"/>
<path d="M75.1501 16.5002L74.1201 17.5725L73.0731 16.5002L74.1201 15.4283L75.1501 16.5002ZM73.1253 16.5002L72.0786 17.5725L71.0486 16.5002L72.0786 15.4283L73.1253 16.5002ZM71.7714 21.9563C68.6869 21.9563 67.1445 20.9249 67.1445 18.8611C67.1445 18.5844 67.1841 18.2964 67.2629 17.9964C67.3414 17.6966 67.4401 17.4202 67.5582 17.1663C67.6766 16.9129 67.8033 16.7054 67.9384 16.5437C68.0735 16.3826 68.197 16.3019 68.3096 16.3019C68.4898 16.3019 68.5798 16.4 68.5798 16.5957C68.5798 16.7574 68.5348 16.9389 68.4447 17.1406C68.3547 17.3425 68.3096 17.5757 68.3096 17.8409C68.3096 18.3136 68.4447 18.6796 68.7149 18.9388C68.9851 19.1981 69.32 19.3885 69.7198 19.5094C70.1193 19.6306 70.5443 19.6998 70.9946 19.7169C71.4447 19.7344 71.8557 19.7429 72.2273 19.7429C73.0601 19.7429 73.806 19.7285 74.4645 19.6998C75.1233 19.6711 75.683 19.6247 76.1449 19.5614C76.6062 19.4982 76.9607 19.4118 77.2087 19.3022C77.456 19.1925 77.5799 19.0571 77.5799 18.8957C77.5799 18.8611 77.5435 18.7833 77.4702 18.6621C77.3969 18.5412 77.31 18.4058 77.2087 18.2557C77.1073 18.1061 76.9973 17.9591 76.8793 17.8149C76.7612 17.6709 76.6567 17.553 76.5669 17.4604L77.6815 16.0252C77.7262 15.956 77.7658 15.9214 77.7996 15.9214C77.8333 15.9214 77.8726 15.9504 77.9176 16.0077C78.1766 16.377 78.3847 16.7459 78.5426 17.1145C78.7 17.4835 78.779 17.8814 78.779 18.3077C78.779 18.9303 78.6832 19.4606 78.4918 19.8987C78.3004 20.3369 78.0022 20.7058 77.5969 21.0053C77.383 21.167 77.1099 21.305 76.7779 21.4203C76.4457 21.5356 76.0433 21.6338 75.5707 21.7142C75.0979 21.7952 74.5491 21.8552 73.9244 21.8957C73.2994 21.9362 72.5817 21.9563 71.7714 21.9563Z" fill="#16687E"/>
<path d="M81.0839 19.8121C81.0839 20.2503 80.87 20.9305 80.4422 21.8525C80.3183 22.0947 80.2395 22.2156 80.2058 22.2156C80.1382 22.2156 80.0764 21.9448 80.0201 21.4029L79.2266 12.2036L80.797 10.8721C80.8867 10.7799 80.9543 10.7338 80.9996 10.7338C81.0556 10.7338 81.0839 10.797 81.0839 10.9238V19.8121Z" fill="#16687E"/>
<path d="M84.9845 19.7174C84.9845 20.6513 84.7928 21.5272 84.4103 22.3458C84.2977 22.5879 84.1597 22.8327 83.9966 23.0807C83.8333 23.3285 83.6676 23.5534 83.4987 23.755C83.3298 23.9567 83.1748 24.121 83.0342 24.2478C82.8933 24.3747 82.7949 24.4382 82.7386 24.4382C82.3783 24.4382 81.9927 24.4235 81.5819 24.3951C81.1714 24.3661 80.7912 24.3286 80.4422 24.2824C80.0935 24.2363 79.8033 24.1816 79.5727 24.1184C79.342 24.0548 79.2266 23.9886 79.2266 23.9194C79.2266 23.8961 79.2661 23.8677 79.3446 23.8328C79.8963 23.6368 80.4422 23.3775 80.9826 23.055C81.523 22.7319 82.0097 22.386 82.4433 22.0174C82.8766 21.6481 83.2253 21.2795 83.49 20.9105C83.7544 20.5416 83.887 20.2075 83.887 19.9078C83.887 19.7925 83.8387 19.6396 83.7435 19.4492C83.6476 19.2592 83.5238 19.0602 83.372 18.8527C83.2198 18.6454 83.0567 18.4438 82.8824 18.2475C82.7077 18.0518 82.5359 17.8845 82.3671 17.7461L83.1947 15.965C83.2169 15.9074 83.2507 15.8787 83.296 15.8787C83.3298 15.8787 83.3636 15.8958 83.3971 15.9304C84.4554 17.0142 84.9845 18.2765 84.9845 19.7174Z" fill="#16687E"/>
<path d="M87.8465 21.8008C87.4074 21.8008 87.0472 21.7115 86.7657 21.5326C86.4843 21.3541 86.2591 21.1235 86.0905 20.8409C85.9216 20.5586 85.8004 20.2443 85.7273 19.8987C85.654 19.5528 85.6119 19.2129 85.6006 18.8785C85.5781 18.5096 85.5611 18.0428 85.5501 17.4775C85.5388 16.9129 85.5163 16.3018 85.4825 15.6447C85.426 14.7572 85.37 14.0223 85.3137 13.4399C85.2571 12.8581 85.2178 12.4401 85.1953 12.1864L86.6306 10.9587C86.7882 10.8319 86.8841 10.7683 86.9178 10.7683C86.9626 10.7683 86.9854 10.8434 86.9854 10.993V18.3251C86.9854 19.1437 87.4354 19.5528 88.3361 19.5528H89.0792V21.8008H87.8465Z" fill="#16687E"/>
<path d="M89.0833 21.8008C88.9595 21.8008 88.8469 21.7893 88.7456 21.7662C88.6443 21.7431 88.5938 21.7085 88.5938 21.6624V19.6912C88.5938 19.6451 88.6443 19.6105 88.7456 19.5874C88.8469 19.5644 88.9595 19.5528 89.0833 19.5528H97.7V21.8008H89.0833Z" fill="#16687E"/>
<path d="M104.351 16.2392L105.381 15.1844L106.428 16.2392L105.381 17.3112L104.351 16.2392ZM103.169 14.4581L104.199 13.4204L105.246 14.4581L104.199 15.5303L103.169 14.4581ZM102.021 16.2392L103.068 15.1844L104.115 16.2392L103.068 17.3112L102.021 16.2392ZM109.061 21.8005C108.351 21.8005 107.766 21.3973 107.305 20.5902C107.079 20.9938 106.823 21.2965 106.536 21.4981C106.249 21.7 105.948 21.8005 105.633 21.8005C105.239 21.8005 104.904 21.7 104.628 21.4981C104.352 21.2965 104.102 20.9938 103.877 20.5902C103.651 20.9938 103.398 21.2965 103.117 21.4981C102.835 21.7 102.503 21.8005 102.121 21.8005C101.389 21.8005 100.809 21.3973 100.382 20.5902C99.9197 21.3973 99.2275 21.8005 98.3046 21.8005H97.6966C97.5728 21.8005 97.4602 21.7893 97.3589 21.7659C97.2575 21.7432 97.207 21.7086 97.207 21.6625V19.691C97.207 19.6451 97.2575 19.6105 97.3589 19.5872C97.4602 19.5644 97.5728 19.5526 97.6966 19.5526H98.6928C98.9402 19.5526 99.1403 19.518 99.2924 19.4488C99.4443 19.38 99.5681 19.2818 99.6637 19.155C99.7592 19.0285 99.8383 18.8727 99.9001 18.6882C99.9619 18.5037 100.021 18.2962 100.078 18.0656C100.167 17.7085 100.303 17.5296 100.483 17.5296C100.685 17.5296 100.832 17.7085 100.922 18.0656C100.967 18.2616 101.012 18.449 101.057 18.6276C101.102 18.8064 101.169 18.9649 101.259 19.1032C101.35 19.2413 101.47 19.351 101.623 19.4317C101.774 19.5124 101.974 19.5526 102.222 19.5526C102.458 19.5526 102.65 19.5153 102.796 19.4403C102.942 19.3655 103.063 19.2587 103.159 19.1204C103.255 18.982 103.331 18.8239 103.387 18.6447C103.443 18.4662 103.5 18.2731 103.556 18.0656C103.646 17.7085 103.798 17.5296 104.012 17.5296C104.192 17.5296 104.327 17.7085 104.417 18.0656C104.451 18.2731 104.49 18.4662 104.535 18.6447C104.58 18.8239 104.648 18.9794 104.738 19.1118C104.828 19.2446 104.952 19.351 105.11 19.4317C105.267 19.5124 105.475 19.5526 105.734 19.5526C106.117 19.5526 106.393 19.4142 106.562 19.1378C106.73 18.8611 106.86 18.5037 106.95 18.0656C106.984 17.8927 107.045 17.7602 107.136 17.668C107.226 17.5757 107.321 17.5296 107.423 17.5296C107.637 17.5296 107.772 17.7085 107.828 18.0656C107.862 18.2962 107.904 18.5008 107.955 18.6793C108.005 18.8582 108.079 19.014 108.174 19.1461C108.27 19.2791 108.399 19.38 108.563 19.4488C108.726 19.518 108.943 19.5526 109.213 19.5526H110.158V21.8005H109.061Z" fill="#16687E"/>
<path d="M110.161 21.8008C110.038 21.8008 109.925 21.7893 109.824 21.7662C109.722 21.7431 109.672 21.7085 109.672 21.6624V19.6912C109.672 19.6451 109.722 19.6105 109.824 19.5874C109.925 19.5644 110.038 19.5528 110.161 19.5528H119.933V21.8008H110.161Z" fill="#16687E"/>
<path d="M121.262 16.2046L120.232 17.2768L119.185 16.2046L120.232 15.1326L121.262 16.2046ZM119.237 16.2046L118.19 17.2768L117.16 16.2046L118.19 15.1326L119.237 16.2046ZM124.471 21.8008C124.043 21.8008 123.621 21.7 123.204 21.4981C122.788 21.2964 122.473 20.9707 122.259 20.521C122.045 20.8903 121.741 21.1953 121.347 21.4375C120.953 21.6796 120.537 21.8008 120.097 21.8008H119.929C119.805 21.8008 119.692 21.7893 119.591 21.7659C119.49 21.7431 119.439 21.7085 119.439 21.6624V19.6909C119.439 19.6451 119.49 19.6105 119.591 19.5871C119.692 19.5644 119.805 19.5528 119.929 19.5528H120.03C120.334 19.5413 120.612 19.4896 120.866 19.397C121.119 19.3048 121.324 19.1668 121.482 18.982C121.651 18.7745 121.775 18.423 121.854 17.9272C121.898 17.5467 122.034 17.3566 122.259 17.3566C122.473 17.3566 122.608 17.5467 122.664 17.9272C122.743 18.4345 122.85 18.786 122.985 18.982C123.255 19.3625 123.728 19.5528 124.403 19.5528H124.589V21.8008H124.471Z" fill="#16687E"/>
<path d="M124.591 21.8008C124.467 21.8008 124.355 21.7893 124.253 21.7662C124.152 21.7431 124.102 21.7085 124.102 21.6624V19.6912C124.102 19.6451 124.152 19.6105 124.253 19.5874C124.355 19.5644 124.467 19.5528 124.591 19.5528H129.744V21.8008H124.591Z" fill="#16687E"/>
<path d="M130.507 16.1975L129.24 17.477L128.008 16.1975L129.24 14.9523L130.507 16.1975ZM129.743 21.8008C129.619 21.8008 129.507 21.7895 129.405 21.7662C129.304 21.7431 129.253 21.7088 129.253 21.6624V19.6912C129.253 19.6454 129.304 19.6105 129.405 19.5874C129.507 19.5644 129.619 19.5528 129.743 19.5528H130.858C131.69 19.5528 132.107 19.3973 132.107 19.086C132.107 18.8209 131.786 18.331 131.145 17.6162C131.111 17.5701 131.094 17.524 131.094 17.4778C131.094 17.4317 131.111 17.38 131.145 17.322L132.141 15.9042C132.186 15.835 132.231 15.8005 132.276 15.8005C132.321 15.8005 132.36 15.8176 132.394 15.8525C132.529 15.9905 132.65 16.1608 132.757 16.3624C132.864 16.5644 132.954 16.7805 133.027 17.0108C133.1 17.2416 133.16 17.4778 133.205 17.7197C133.25 17.9621 133.272 18.1868 133.272 18.3943C133.272 19.4204 133.05 20.2443 132.605 20.8669C132.16 21.4895 131.539 21.8008 130.739 21.8008H129.743Z" fill="#16687E"/>
<path d="M135.713 19.8121C135.713 20.2503 135.499 20.9305 135.071 21.8525C134.947 22.0947 134.868 22.2156 134.835 22.2156C134.767 22.2156 134.705 21.9448 134.649 21.4029L133.855 12.2036L135.426 10.8721C135.516 10.7799 135.583 10.7338 135.629 10.7338C135.685 10.7338 135.713 10.797 135.713 10.9238V19.8121Z" fill="#16687E"/>
<path d="M45.62 21.8008C45.1809 21.8008 44.8206 21.7115 44.5391 21.5326C44.2577 21.3541 44.0325 21.1235 43.8639 20.8409C43.6951 20.5586 43.5738 20.2443 43.5008 19.8987C43.4275 19.5528 43.3853 19.2129 43.3741 18.8785C43.3515 18.5096 43.3345 18.0428 43.3235 17.4775C43.3123 16.9129 43.2898 16.3018 43.256 15.6447C43.1994 14.7572 43.1434 14.0223 43.0871 13.4399C43.0305 12.8581 42.9913 12.4401 42.9688 12.1864L44.404 10.9587C44.5617 10.8319 44.6575 10.7683 44.6913 10.7683C44.736 10.7683 44.7588 10.8434 44.7588 10.993V18.3251C44.7588 19.1437 45.2089 19.5528 46.1095 19.5528H46.8526V21.8008H45.62Z" fill="#16687E"/>
<path d="M46.849 21.8008C46.7251 21.8008 46.6125 21.7893 46.5112 21.7662C46.4099 21.7431 46.3594 21.7085 46.3594 21.6624V19.6912C46.3594 19.6451 46.4099 19.6105 46.5112 19.5874C46.6125 19.5644 46.7251 19.5528 46.849 19.5528H55.177V21.8008H46.849Z" fill="#16687E"/>
<path d="M55.1771 21.8008C55.0533 21.8008 54.9407 21.7893 54.8393 21.7662C54.738 21.7431 54.6875 21.7085 54.6875 21.6624V19.6912C54.6875 19.6451 54.738 19.6105 54.8393 19.5874C54.9407 19.5644 55.0533 19.5528 55.1771 19.5528H56.2917C57.1245 19.5528 57.5411 19.3973 57.5411 19.0858C57.5411 18.8209 57.2203 18.331 56.5786 17.6162C56.5448 17.5701 56.5278 17.524 56.5278 17.4775C56.5278 17.4317 56.5448 17.38 56.5786 17.322L57.5748 15.9042C57.6196 15.8351 57.6649 15.8005 57.7099 15.8005C57.7547 15.8005 57.7942 15.8176 57.8283 15.8522C57.9631 15.9905 58.0841 16.1608 58.1912 16.3624C58.298 16.5644 58.388 16.7805 58.4614 17.0108C58.5344 17.2416 58.5936 17.4775 58.6386 17.7197C58.6834 17.9621 58.7062 18.1868 58.7062 18.3943C58.7062 19.4204 58.4839 20.2443 58.0393 20.8669C57.5945 21.4895 56.9724 21.8008 56.1733 21.8008H55.1771Z" fill="#16687E"/>
<path d="M51.9247 23.4092L50.8779 24.4814L49.8477 23.4092L50.8779 22.3373L51.9247 23.4092Z" fill="#16687E"/>
<path d="M53.9481 23.4092L52.9181 24.4814L51.8711 23.4092L52.9181 22.3373L53.9481 23.4092Z" fill="#16687E"/>
<path d="M0.273499 41.706H0.539081C0.842479 41.706 1.09738 41.6714 1.30378 41.6025C1.51019 41.533 1.67675 41.4446 1.80319 41.337C1.92963 41.2288 2.0223 41.1058 2.08148 40.9681C2.14037 40.8297 2.16981 40.6875 2.16981 40.5406V37.2133H3.61117V40.2946C3.61117 40.7091 3.55199 41.0911 3.43421 41.4405C3.31615 41.7902 3.14756 42.092 2.92845 42.3469C2.70906 42.6014 2.43944 42.8001 2.11929 42.9423C1.79886 43.0848 1.43658 43.156 1.03214 43.156H0.488274L0.273499 41.706Z" fill="#F99F1B"/>
<path d="M6.01555 40.748C5.5352 40.748 5.18301 40.5949 4.95986 40.2883C4.73643 39.9821 4.625 39.557 4.625 39.013V34.0932H6.06607V38.7283C6.06607 38.9702 6.09985 39.1212 6.1674 39.1815C6.23466 39.2418 6.37784 39.272 6.59724 39.272H6.81201V40.748H6.01555Z" fill="#F99F1B"/>
<path d="M6.50781 39.3625C6.50781 39.3282 6.54159 39.3043 6.60885 39.2913C6.6764 39.2782 6.74395 39.2717 6.81121 39.2717H9.41565C9.59261 39.2717 9.68123 39.2029 9.68123 39.0648C9.68123 38.9956 9.6515 38.9312 9.59261 38.8706L7.14001 36.2422L6.98817 34.8829L10.8443 33.4458L11.0718 34.9086L8.77075 35.828L10.7179 37.9642C10.8865 38.1371 11.0129 38.3355 11.0972 38.5599C11.1812 38.7843 11.2236 39.0045 11.2236 39.22C11.2236 39.4187 11.1875 39.6085 11.1162 39.7897C11.0444 39.9712 10.939 40.1329 10.8001 40.2754C10.661 40.4176 10.4817 40.5323 10.2626 40.6183C10.0435 40.7046 9.79064 40.7478 9.50427 40.7478H6.81121C6.74395 40.7478 6.6764 40.7392 6.60885 40.7221C6.54159 40.7046 6.50781 40.6789 6.50781 40.6443V39.3625Z" fill="#F99F1B"/>
<path d="M14.6365 39.272V38.4564C14.6365 38.206 14.5773 38.0271 14.4595 37.9189C14.3414 37.8113 14.2193 37.7572 14.0929 37.7572C13.8989 37.7572 13.7641 37.822 13.6881 37.9515C13.6125 38.0809 13.5744 38.2364 13.5744 38.4177C13.5744 38.6938 13.646 38.9051 13.7895 39.0518C13.9327 39.1987 14.1645 39.272 14.4846 39.272H14.6365ZM12.2344 41.7062H13.3215C13.6249 41.7062 13.9052 41.6285 14.1624 41.473C14.4194 41.3178 14.5773 41.0759 14.6365 40.7481C14.2739 40.7395 13.9454 40.7008 13.6503 40.6316C13.3553 40.5624 13.1024 40.446 12.8917 40.2819C12.681 40.1181 12.5187 39.9023 12.405 39.6345C12.2912 39.3672 12.2344 39.0305 12.2344 38.6246C12.2344 37.8651 12.388 37.2848 12.6957 36.8834C13.0034 36.4819 13.4861 36.2812 14.1434 36.2812C14.4298 36.2812 14.6933 36.3288 14.9335 36.4237C15.1737 36.5189 15.3801 36.6676 15.553 36.8704C15.7256 37.0732 15.8607 37.3321 15.9577 37.6473C16.0544 37.9624 16.1029 38.3443 16.1029 38.7931V40.5926C16.1029 40.955 16.029 41.2917 15.8818 41.6024C15.7343 41.9131 15.5383 42.1851 15.2938 42.4181C15.0493 42.6513 14.7692 42.8325 14.4531 42.962C14.137 43.0915 13.8146 43.1562 13.4861 43.1562H12.424L12.2344 41.7062Z" fill="#F99F1B"/>
<path d="M20.2738 42.6901C20.2738 42.4743 20.3475 42.2907 20.495 42.1399C20.6425 41.9888 20.8218 41.9132 21.0325 41.9132C21.2429 41.9132 21.4242 41.9888 21.5761 42.1399C21.7276 42.2907 21.8035 42.4743 21.8035 42.6901C21.8035 42.9056 21.7276 43.0915 21.5761 43.2467C21.4242 43.4022 21.2429 43.48 21.0325 43.48C20.8218 43.48 20.6425 43.4022 20.495 43.2467C20.3475 43.0915 20.2738 42.9056 20.2738 42.6901ZM25.1539 40.7481C24.8084 40.7481 24.5806 40.6573 24.4712 40.4761C24.3531 40.597 24.233 40.6727 24.1109 40.7029C23.9885 40.733 23.822 40.7481 23.6115 40.7481H18.6555C18.1247 40.7481 17.7346 40.582 17.4861 40.2497C17.2373 39.9174 17.1131 39.4793 17.1131 38.9353V37.2136H18.5545V38.8061C18.5545 39.1168 18.6936 39.272 18.9716 39.272H23.1817C23.5523 39.272 23.738 39.1083 23.738 38.7801V37.2136H25.2044V38.8061C25.2044 39.1168 25.3225 39.272 25.5584 39.272H25.8745V40.7481H25.1539Z" fill="#F99F1B"/>
<path d="M33.7881 40.7479C33.3836 40.7479 33.0926 40.64 32.9157 40.4242C32.7722 40.5711 32.61 40.6855 32.429 40.7674C32.2477 40.8493 32.0349 40.8904 31.7904 40.8904C31.2258 40.8904 30.8043 40.6876 30.5263 40.2817C30.3661 40.4803 30.1741 40.6314 29.951 40.7349C29.7275 40.8386 29.5021 40.8904 29.2746 40.8904C29.0301 40.8904 28.8023 40.8386 28.5919 40.7349C28.3812 40.6314 28.2082 40.4803 28.0734 40.2817C27.9554 40.42 27.7995 40.5324 27.6058 40.6184C27.4118 40.7047 27.1589 40.7479 26.8471 40.7479H25.8737C25.8064 40.7479 25.7389 40.7393 25.6713 40.7219C25.6041 40.7047 25.5703 40.679 25.5703 40.6444V39.3626C25.5703 39.3283 25.6041 39.3043 25.6713 39.2913C25.7389 39.2783 25.8064 39.2718 25.8737 39.2718H26.7966C27.0579 39.2718 27.1886 39.1296 27.1886 38.8446V37.2134H28.6424V38.8577C28.6424 39.0389 28.6886 39.1749 28.7815 39.2653C28.8742 39.3561 28.9796 39.4013 29.0976 39.4013C29.2154 39.4013 29.3251 39.3561 29.4262 39.2653C29.5275 39.1749 29.578 39.0389 29.578 38.8577V37.2134H31.0067V38.8577C31.0067 39.0389 31.0572 39.1749 31.1582 39.2653C31.2595 39.3561 31.369 39.4013 31.487 39.4013C31.6051 39.4013 31.7102 39.3561 31.8031 39.2653C31.8958 39.1749 31.9423 39.0389 31.9423 38.8577V37.2134H33.396V38.9871C33.4044 39.1769 33.5308 39.2718 33.7754 39.2718H34.4076V40.7479H33.7881Z" fill="#F99F1B"/>
<path d="M34.1055 39.3625C34.1055 39.3282 34.1392 39.3043 34.2065 39.2913C34.2741 39.2782 34.3416 39.2717 34.4089 39.2717H37.0133C37.1903 39.2717 37.2789 39.2029 37.2789 39.0648C37.2789 38.9956 37.2492 38.9312 37.1903 38.8706L34.7377 36.2422L34.5858 34.8829L38.442 33.4458L38.6694 34.9086L36.3684 35.828L38.3155 37.9642C38.4841 38.1371 38.6105 38.3355 38.6948 38.5599C38.7788 38.7843 38.8213 39.0045 38.8213 39.22C38.8213 39.4187 38.7852 39.6085 38.7139 39.7897C38.642 39.9712 38.5366 40.1329 38.3978 40.2754C38.2587 40.4176 38.0794 40.5323 37.8603 40.6183C37.6412 40.7046 37.3883 40.7478 37.1019 40.7478H34.4089C34.3416 40.7478 34.2741 40.7392 34.2065 40.7221C34.1392 40.7046 34.1055 40.6789 34.1055 40.6443V39.3625Z" fill="#F99F1B"/>
<path d="M43.1833 39.272V38.4564C43.1833 38.206 43.1241 38.0271 43.0064 37.9189C42.8883 37.8113 42.7662 37.7572 42.6397 37.7572C42.4458 37.7572 42.3109 37.822 42.235 37.9515C42.1594 38.0809 42.1213 38.2364 42.1213 38.4177C42.1213 38.6938 42.1929 38.9051 42.3363 39.0518C42.4795 39.1987 42.7113 39.272 43.0315 39.272H43.1833ZM40.7812 41.7062H41.8684C42.1718 41.7062 42.4521 41.6285 42.7093 41.473C42.9662 41.3178 43.1241 41.0759 43.1833 40.7481C42.8207 40.7395 42.4922 40.7008 42.1972 40.6316C41.9022 40.5624 41.6493 40.446 41.4386 40.2819C41.2278 40.1181 41.0656 39.9023 40.9519 39.6345C40.8381 39.3672 40.7812 39.0305 40.7812 38.6246C40.7812 37.8651 40.9348 37.2848 41.2426 36.8834C41.5503 36.4819 42.033 36.2812 42.6903 36.2812C42.9766 36.2812 43.2402 36.3288 43.4804 36.4237C43.7206 36.5189 43.927 36.6676 44.0999 36.8704C44.2725 37.0732 44.4076 37.3321 44.5046 37.6473C44.6013 37.9624 44.6498 38.3443 44.6498 38.7931V40.5926C44.6498 40.955 44.5759 41.2917 44.4287 41.6024C44.2812 41.9131 44.0851 42.1851 43.8406 42.4181C43.5961 42.6513 43.3161 42.8325 43 42.962C42.6839 43.0915 42.3615 43.1562 42.033 43.1562H40.9709L40.7812 41.7062Z" fill="#F99F1B"/>
<path d="M50.794 35.9445C50.794 35.729 50.8656 35.543 51.0091 35.3878C51.1523 35.2323 51.3333 35.1546 51.5527 35.1546C51.7631 35.1546 51.9444 35.2323 52.0962 35.3878C52.2478 35.543 52.3237 35.729 52.3237 35.9445C52.3237 36.1603 52.2478 36.3439 52.0962 36.4946C51.9444 36.6457 51.7631 36.7214 51.5527 36.7214C51.3333 36.7214 51.1523 36.6457 51.0091 36.4946C50.8656 36.3439 50.794 36.1603 50.794 35.9445ZM49.0115 35.9445C49.0115 35.729 49.0851 35.543 49.2326 35.3878C49.3801 35.2323 49.5594 35.1546 49.7701 35.1546C49.9892 35.1546 50.1725 35.2323 50.32 35.3878C50.4672 35.543 50.5411 35.729 50.5411 35.9445C50.5411 36.1603 50.4672 36.3439 50.32 36.4946C50.1725 36.6457 49.9892 36.7214 49.7701 36.7214C49.5594 36.7214 49.3801 36.6457 49.2326 36.4946C49.0851 36.3439 49.0115 36.1603 49.0115 35.9445ZM54.6502 40.7478C54.3043 40.7478 54.0769 40.6573 53.9674 40.4758C53.8494 40.597 53.729 40.6724 53.6072 40.7026C53.4848 40.733 53.3182 40.7478 53.1078 40.7478H48.1518C47.6206 40.7478 47.2309 40.5817 46.9823 40.2494C46.7335 39.9171 46.6094 39.479 46.6094 38.9353V37.2133H48.0507V38.8058C48.0507 39.1165 48.1896 39.2717 48.4679 39.2717H52.6779C53.0486 39.2717 53.2342 39.108 53.2342 38.7798V37.2133H54.7007V38.8058C54.7007 39.1165 54.8185 39.2717 55.0546 39.2717H55.3707V40.7478H54.6502Z" fill="#F99F1B"/>
<path d="M56.4819 42.6771C56.4819 42.4613 56.5535 42.2777 56.697 42.127C56.8401 41.9759 57.0211 41.9002 57.2405 41.9002C57.451 41.9002 57.6323 41.9759 57.7841 42.127C57.9357 42.2777 58.0116 42.4613 58.0116 42.6771C58.0116 42.8926 57.9357 43.0786 57.7841 43.2338C57.6323 43.3893 57.451 43.467 57.2405 43.467C57.0211 43.467 56.8401 43.3893 56.697 43.2338C56.5535 43.0786 56.4819 42.8926 56.4819 42.6771ZM55.0659 39.3626C55.0659 39.3283 55.0997 39.3043 55.167 39.2913C55.2345 39.2786 55.3021 39.2721 55.3693 39.2721H56.7853C57.0803 39.2721 57.2278 39.1166 57.2278 38.8059V37.2134H58.6692V38.9354C58.6692 39.1683 58.6291 39.393 58.5491 39.6085C58.4688 39.8246 58.3594 40.0165 58.2203 40.1847C58.0812 40.3532 57.9169 40.4892 57.7272 40.5927C57.5376 40.6961 57.3289 40.7479 57.1014 40.7479H55.3693C55.3021 40.7479 55.2345 40.7396 55.167 40.7222C55.0997 40.705 55.0659 40.679 55.0659 40.6444V39.3626ZM54.6993 42.6771C54.6993 42.4613 54.7732 42.2777 54.9204 42.127C55.0682 41.9759 55.2472 41.9002 55.458 41.9002C55.6771 41.9002 55.8604 41.9759 56.0079 42.127C56.1551 42.2777 56.229 42.4613 56.229 42.6771C56.229 42.8926 56.1551 43.0786 56.0079 43.2338C55.8604 43.3893 55.6771 43.467 55.458 43.467C55.2472 43.467 55.0682 43.3893 54.9204 43.2338C54.7732 43.0786 54.6993 42.8926 54.6993 42.6771Z" fill="#F99F1B"/>
<path d="M62.1054 40.7478C61.9285 40.7478 61.7766 40.6961 61.6502 40.5926C61.6502 41.0154 61.5722 41.3864 61.4163 41.706C61.2605 42.0252 61.0581 42.2928 60.8095 42.5086C60.5607 42.7244 60.2847 42.8861 59.9813 42.9943C59.6779 43.1019 59.3745 43.156 59.0711 43.156H58.5276L58.3125 41.706H58.5781C58.8815 41.706 59.1367 41.6714 59.3431 41.6022C59.5495 41.533 59.716 41.4446 59.8425 41.337C59.9689 41.2288 60.0613 41.1058 60.1205 40.9681C60.1794 40.8297 60.2091 40.6875 60.2091 40.5406V37.2133H61.6502V38.9223C61.6585 39.1553 61.8061 39.2718 62.0927 39.2718H62.3078V40.7478H62.1054Z" fill="#F99F1B"/>
<path d="M64.0814 42.6771C64.0814 42.4613 64.153 42.2777 64.2961 42.127C64.4396 41.9759 64.6206 41.9002 64.84 41.9002C65.0505 41.9002 65.2317 41.9759 65.3836 42.127C65.5351 42.2777 65.6111 42.4613 65.6111 42.6771C65.6111 42.8926 65.5351 43.0786 65.3836 43.2338C65.2317 43.3893 65.0505 43.467 64.84 43.467C64.6206 43.467 64.4396 43.3893 64.2961 43.2338C64.153 43.0786 64.0814 42.8926 64.0814 42.6771ZM62.2988 42.6771C62.2988 42.4613 62.3724 42.2777 62.5199 42.127C62.6674 41.9759 62.8464 41.9002 63.0574 41.9002C63.2763 41.9002 63.4596 41.9759 63.6074 42.127C63.7546 42.2777 63.8285 42.4613 63.8285 42.6771C63.8285 42.8926 63.7546 43.0786 63.6074 43.2338C63.4596 43.3893 63.2763 43.467 63.0574 43.467C62.8464 43.467 62.6674 43.3893 62.5199 43.2338C62.3724 43.0786 62.2988 42.8926 62.2988 42.6771ZM62.0078 39.3626C62.0078 39.3283 62.0416 39.3043 62.1091 39.2913C62.1767 39.2786 62.2439 39.2721 62.3115 39.2721H64.3848C64.6798 39.2721 64.8273 39.1166 64.8273 38.8059V37.2134H66.2687V38.9354C66.2687 39.1683 66.2285 39.393 66.1486 39.6085C66.0683 39.8246 65.9589 40.0165 65.8198 40.1847C65.6806 40.3532 65.5164 40.4892 65.3267 40.5927C65.1371 40.6961 64.9283 40.7479 64.7009 40.7479H62.3115C62.2439 40.7479 62.1767 40.7396 62.1091 40.7222C62.0416 40.705 62.0078 40.679 62.0078 40.6444V39.3626Z" fill="#F99F1B"/>
<path d="M73.1577 40.748C72.7951 40.748 72.5148 40.6963 72.3171 40.5928C72.1187 40.4891 71.9398 40.364 71.7795 40.2171C71.6361 40.3812 71.4591 40.5107 71.2487 40.6056C71.0379 40.7007 70.785 40.748 70.49 40.748H67.342L67.1523 39.285H70.4646C70.5235 39.285 70.57 39.2699 70.6038 39.2398C70.6375 39.2096 70.6543 39.173 70.6543 39.1298C70.6543 39.0695 70.6292 39.013 70.5786 38.9613L68.3408 36.5144L69.3521 35.4655L72.3358 38.7413C72.5044 38.9311 72.6519 39.0671 72.7784 39.149C72.9048 39.2312 73.0312 39.272 73.1577 39.272H73.2463V40.748H73.1577Z" fill="#F99F1B"/>
<path d="M75.963 37.6794C75.769 37.6794 75.6068 37.7442 75.4763 37.8737C75.3455 38.0032 75.2803 38.2104 75.2803 38.4951C75.2803 38.7455 75.3475 38.9376 75.4826 39.0713C75.6171 39.2052 75.7774 39.272 75.963 39.272C76.1905 39.272 76.3674 39.1987 76.4939 39.0517C76.6203 38.9051 76.6835 38.7198 76.6835 38.4951C76.6835 38.2967 76.6223 38.1111 76.5002 37.9384C76.3781 37.7658 76.1988 37.6794 75.963 37.6794ZM72.9414 39.3624C72.9414 39.3282 72.9752 39.3042 73.0424 39.2912C73.11 39.2785 73.1775 39.272 73.2448 39.272H73.3712C73.6071 39.272 73.782 39.2158 73.8958 39.1035C74.0098 38.9914 74.0667 38.8016 74.0667 38.5338C74.0667 38.2491 74.1108 37.9689 74.1995 37.6925C74.2878 37.4163 74.4142 37.168 74.5785 36.9481C74.743 36.7278 74.9408 36.551 75.1729 36.4171C75.4044 36.2835 75.6596 36.2164 75.9376 36.2164C76.241 36.2164 76.5149 36.2876 76.7594 36.4301C77.0039 36.5723 77.2104 36.7583 77.3789 36.9868C77.5475 37.2156 77.678 37.4704 77.771 37.7507C77.8636 38.0312 77.9101 38.3097 77.9101 38.5858C77.9101 38.888 77.8613 39.1706 77.7646 39.4337C77.6676 39.6971 77.5325 39.9259 77.3599 40.1198C77.1873 40.3141 76.9785 40.4675 76.7343 40.5795C76.4895 40.6919 76.2242 40.748 75.9376 40.748C75.3392 40.748 74.9009 40.5538 74.6229 40.1654C74.3784 40.5538 73.9864 40.748 73.4472 40.748H73.2448C73.1775 40.748 73.11 40.7395 73.0424 40.722C72.9752 40.7049 72.9414 40.6789 72.9414 40.6443V39.3624Z" fill="#F99F1B"/>
<path d="M86.3441 40.4114C86.3441 40.7912 86.2786 41.1472 86.1481 41.4795C86.0173 41.8117 85.8383 42.1029 85.6108 42.3536C85.3831 42.6037 85.1135 42.8 84.8017 42.9425C84.4896 43.085 84.1525 43.1562 83.7902 43.1562H82.3615C81.9317 43.1562 81.5607 43.0915 81.2489 42.962C80.9372 42.8325 80.6779 42.6513 80.4715 42.4181C80.2648 42.1851 80.1133 41.9087 80.0163 41.5897C79.9193 41.2702 79.8711 40.9204 79.8711 40.5408V38.1587H81.3122V40.5408C81.3122 40.7049 81.348 40.8557 81.4198 40.994C81.4911 41.1321 81.5841 41.253 81.6978 41.3565C81.8116 41.4599 81.94 41.5398 82.0835 41.5959C82.2267 41.6521 82.3742 41.6802 82.526 41.6802H83.7269C83.8701 41.6802 84.0179 41.6562 84.1695 41.6089C84.3213 41.5613 84.4582 41.4925 84.5803 41.402C84.7024 41.3112 84.8037 41.203 84.884 41.078C84.9639 40.953 85.004 40.817 85.004 40.6703C85.004 40.5148 84.9616 40.3853 84.8776 40.2819C84.793 40.1784 84.6625 40.1267 84.4856 40.1267H82.7408V38.3786C82.7408 38.1025 82.7957 37.8436 82.9051 37.6017C83.0148 37.3602 83.16 37.1488 83.3416 36.9673C83.5226 36.7861 83.7313 36.6436 83.9671 36.5401C84.203 36.4367 84.4478 36.3849 84.7006 36.3849H86.129V37.8607H84.7258C84.3718 37.8607 84.1949 38.0594 84.1949 38.4564V38.8061H84.8649C85.4042 38.8061 85.7855 38.9507 86.0089 39.2395C86.2324 39.5289 86.3441 39.9194 86.3441 40.4114Z" fill="#F99F1B"/>
<path d="M88.746 40.748C88.2657 40.748 87.9135 40.5949 87.6903 40.2883C87.4669 39.9821 87.3555 39.557 87.3555 39.013V34.0932H88.7965V38.7283C88.7965 38.9702 88.8303 39.1212 88.8979 39.1815C88.9651 39.2418 89.1083 39.272 89.3277 39.272H89.5425V40.748H88.746Z" fill="#F99F1B"/>
<path d="M93.7013 38.5729C93.7013 38.7458 93.6571 38.9205 93.5685 39.0973C93.4802 39.2741 93.3641 39.445 93.2209 39.6087C93.3555 39.6605 93.4802 39.6971 93.5939 39.7187C93.7077 39.7403 93.8107 39.7512 93.9037 39.7512C94.0552 39.7512 94.1796 39.7016 94.2766 39.6022C94.3733 39.5029 94.4218 39.3799 94.4218 39.2333C94.4218 39.0518 94.363 38.8729 94.2449 38.6959C94.1268 38.5191 93.9118 38.2622 93.6003 37.9255C93.6675 38.1327 93.7013 38.3485 93.7013 38.5729ZM91.1728 38.2104C91.1728 38.3485 91.2464 38.4821 91.3939 38.6119C91.5414 38.7411 91.7037 38.8534 91.8809 38.9483C92.0241 38.8706 92.1378 38.7736 92.2221 38.6571C92.3061 38.5407 92.3486 38.4047 92.3486 38.2492C92.3486 38.0768 92.2874 37.945 92.1653 37.8545C92.0429 37.7637 91.9101 37.7185 91.7669 37.7185C91.6234 37.7185 91.4889 37.7637 91.3625 37.8545C91.236 37.945 91.1728 38.0638 91.1728 38.2104ZM89.2384 39.3628C89.2384 39.3282 89.2721 39.3045 89.3397 39.2915C89.4072 39.2785 89.4745 39.272 89.5418 39.272H90.3258C90.2834 39.2377 90.2476 39.2031 90.2181 39.1686C90.1887 39.134 90.1613 39.0994 90.1362 39.0648C90.0178 38.9442 89.9315 38.8168 89.8769 38.6828C89.8221 38.5492 89.7947 38.4091 89.7947 38.2622C89.7947 38.0032 89.8535 37.7596 89.9716 37.5308C90.0897 37.302 90.2412 37.1033 90.4269 36.9351C90.6122 36.7669 90.8206 36.633 91.0527 36.5336C91.2845 36.4346 91.5183 36.3849 91.7545 36.3849C91.8385 36.3849 91.9208 36.3894 92.0007 36.398C92.081 36.4065 92.1589 36.4237 92.2348 36.4497L93.2588 35.5043L94.8266 37.2523C95.1129 37.563 95.3531 37.8802 95.5471 38.2039C95.7411 38.5276 95.8378 38.8794 95.8378 39.259C95.8378 39.5786 95.7766 39.8547 95.6545 40.0877C95.5324 40.3209 95.3722 40.5151 95.1741 40.6703C94.9761 40.8258 94.7486 40.94 94.4914 41.0136C94.2342 41.0866 93.9709 41.1235 93.7013 41.1235C93.3641 41.1235 93.044 41.0694 92.7406 40.9615C92.4369 40.8536 92.1462 40.7135 91.8682 40.5409C91.5648 40.6789 91.2738 40.7481 90.9958 40.7481H89.5418C89.4745 40.7481 89.4072 40.7395 89.3397 40.7221C89.2721 40.7049 89.2384 40.6789 89.2384 40.6443V39.3628Z" fill="#F99F1B"/>
<path d="M100.151 42.6901C100.151 42.4743 100.225 42.2907 100.373 42.1399C100.52 41.9888 100.699 41.9132 100.91 41.9132C101.121 41.9132 101.302 41.9888 101.454 42.1399C101.605 42.2907 101.681 42.4743 101.681 42.6901C101.681 42.9056 101.605 43.0915 101.454 43.2467C101.302 43.4022 101.121 43.48 100.91 43.48C100.699 43.48 100.52 43.4022 100.373 43.2467C100.225 43.0915 100.151 42.9056 100.151 42.6901ZM104.956 38.9353C104.956 39.5224 104.831 39.9712 104.583 40.2819C104.334 40.5926 103.932 40.7481 103.375 40.7481H98.4321C97.8758 40.7481 97.4731 40.5885 97.2245 40.2689C96.976 39.9496 96.8516 39.505 96.8516 38.9353V37.2136H98.2929V38.8061C98.2929 39.1168 98.4361 39.272 98.7228 39.272H103.059C103.354 39.272 103.502 39.1168 103.502 38.8061V37.2136H104.956V38.9353Z" fill="#F99F1B"/>
<path d="M107.355 40.748C106.875 40.748 106.523 40.5949 106.3 40.2883C106.076 39.9821 105.965 39.557 105.965 39.013V34.0932H107.406V38.7283C107.406 38.9702 107.44 39.1212 107.507 39.1815C107.574 39.2418 107.718 39.272 107.937 39.272H108.152V40.748H107.355Z" fill="#F99F1B"/>
<path d="M110.25 35.4655C110.25 35.25 110.321 35.064 110.465 34.9088C110.608 34.7533 110.789 34.6756 111.008 34.6756C111.219 34.6756 111.4 34.7533 111.552 34.9088C111.704 35.064 111.779 35.25 111.779 35.4655C111.779 35.6813 111.704 35.8649 111.552 36.0157C111.4 36.1667 111.219 36.2424 111.008 36.2424C110.789 36.2424 110.608 36.1667 110.465 36.0157C110.321 35.8649 110.25 35.6813 110.25 35.4655ZM108.467 35.4655C108.467 35.25 108.541 35.064 108.688 34.9088C108.836 34.7533 109.015 34.6756 109.226 34.6756C109.445 34.6756 109.628 34.7533 109.776 34.9088C109.923 35.064 109.997 35.25 109.997 35.4655C109.997 35.6813 109.923 35.8649 109.776 36.0157C109.628 36.1667 109.445 36.2424 109.226 36.2424C109.015 36.2424 108.836 36.1667 108.688 36.0157C108.541 35.8649 108.467 35.6813 108.467 35.4655ZM111.4 40.748C111.156 40.748 110.936 40.6487 110.743 40.4501C110.65 40.5452 110.549 40.6183 110.439 40.6703C110.33 40.722 110.203 40.748 110.06 40.748H108.151C108.084 40.748 108.016 40.7395 107.949 40.722C107.881 40.7049 107.848 40.6789 107.848 40.6443V39.3624C107.848 39.3282 107.881 39.3042 107.949 39.2912C108.016 39.2785 108.084 39.272 108.151 39.272H109.592C109.87 39.272 110.01 39.1165 110.01 38.8058V37.2135H111.451V38.8058C111.451 39.1165 111.594 39.272 111.881 39.272H112.437V40.748H111.4Z" fill="#F99F1B"/>
<path d="M112.133 39.3625C112.133 39.3282 112.167 39.3043 112.234 39.2913C112.301 39.2782 112.369 39.2717 112.436 39.2717H115.041C115.218 39.2717 115.306 39.2029 115.306 39.0648C115.306 38.9956 115.276 38.9312 115.218 38.8706L112.765 36.2422L112.613 34.8829L116.469 33.4458L116.697 34.9086L114.396 35.828L116.343 37.9642C116.511 38.1371 116.638 38.3355 116.722 38.5599C116.806 38.7843 116.849 39.0045 116.849 39.22C116.849 39.4187 116.813 39.6085 116.741 39.7897C116.669 39.9712 116.564 40.1329 116.425 40.2754C116.286 40.4176 116.107 40.5323 115.888 40.6183C115.669 40.7046 115.416 40.7478 115.129 40.7478H112.436C112.369 40.7478 112.301 40.7392 112.234 40.7221C112.167 40.7046 112.133 40.6789 112.133 40.6443V39.3625Z" fill="#F99F1B"/>
<path d="M121.488 40.7478C121.311 40.7478 121.159 40.6961 121.033 40.5926C121.033 41.0154 120.955 41.3864 120.799 41.706C120.643 42.0252 120.443 42.2928 120.199 42.5086C119.954 42.7244 119.678 42.8861 119.371 42.9943C119.063 43.1019 118.757 43.156 118.454 43.156H117.91L117.695 41.706H117.961C118.264 41.706 118.519 41.6714 118.726 41.6022C118.932 41.533 119.099 41.4446 119.225 41.337C119.352 41.2288 119.444 41.1058 119.503 40.9681C119.562 40.8297 119.592 40.6875 119.592 40.5406V37.2133H121.033V38.9484C121.058 39.1642 121.206 39.2718 121.476 39.2718H121.691V40.7478H121.488Z" fill="#F99F1B"/>
<path d="M126.216 35.4656C126.216 35.2501 126.288 35.0642 126.431 34.909C126.575 34.7535 126.756 34.6757 126.975 34.6757C127.185 34.6757 127.367 34.7535 127.518 34.909C127.67 35.0642 127.746 35.2501 127.746 35.4656C127.746 35.6815 127.67 35.865 127.518 36.0158C127.367 36.1669 127.185 36.2425 126.975 36.2425C126.756 36.2425 126.575 36.1669 126.431 36.0158C126.288 35.865 126.216 35.6815 126.216 35.4656ZM125.331 33.8991C125.331 33.6833 125.405 33.4977 125.553 33.3422C125.7 33.187 125.879 33.1092 126.09 33.1092C126.301 33.1092 126.482 33.187 126.633 33.3422C126.785 33.4977 126.861 33.6833 126.861 33.8991C126.861 34.1149 126.785 34.2985 126.633 34.4493C126.482 34.6003 126.301 34.6757 126.09 34.6757C125.879 34.6757 125.7 34.6003 125.553 34.4493C125.405 34.2985 125.331 34.1149 125.331 33.8991ZM124.434 35.4656C124.434 35.2501 124.507 35.0642 124.655 34.909C124.802 34.7535 124.982 34.6757 125.192 34.6757C125.411 34.6757 125.595 34.7535 125.742 34.909C125.889 35.0642 125.963 35.2501 125.963 35.4656C125.963 35.6815 125.889 35.865 125.742 36.0158C125.595 36.1669 125.411 36.2425 125.192 36.2425C124.982 36.2425 124.802 36.1669 124.655 36.0158C124.507 35.865 124.434 35.6815 124.434 35.4656ZM121.387 39.3626C121.387 39.3283 121.42 39.3043 121.488 39.2913C121.556 39.2786 121.623 39.2721 121.69 39.2721H122.613C122.874 39.2721 123.005 39.1296 123.005 38.8449V37.2137H124.459V38.8577C124.459 39.0392 124.505 39.1749 124.598 39.2656C124.691 39.3561 124.796 39.4016 124.914 39.4016C125.032 39.4016 125.142 39.3561 125.243 39.2656C125.344 39.1749 125.394 39.0392 125.394 38.8577V37.2137H126.823V38.8577C126.823 39.0392 126.874 39.1749 126.975 39.2656C127.076 39.3561 127.185 39.4016 127.304 39.4016C127.421 39.4016 127.527 39.3561 127.62 39.2656C127.712 39.1749 127.759 39.0392 127.759 38.8577V37.2137H129.213V38.9354C129.213 39.2204 129.179 39.4814 129.111 39.7188C129.044 39.9562 128.943 40.1611 128.808 40.3337C128.673 40.5064 128.505 40.6424 128.302 40.7417C128.1 40.8407 127.868 40.8904 127.607 40.8904C127.042 40.8904 126.621 40.6879 126.343 40.282C126.182 40.4806 125.991 40.6314 125.767 40.7352C125.544 40.8386 125.319 40.8904 125.091 40.8904C124.847 40.8904 124.619 40.8386 124.408 40.7352C124.198 40.6314 124.025 40.4806 123.89 40.282C123.772 40.42 123.616 40.5324 123.422 40.6184C123.228 40.705 122.975 40.7482 122.664 40.7482H121.69C121.623 40.7482 121.556 40.7396 121.488 40.7222C121.42 40.705 121.387 40.679 121.387 40.6444V39.3626Z" fill="#F99F1B"/>
<path d="M131.617 40.748C131.137 40.748 130.785 40.5949 130.561 40.2883C130.338 39.9821 130.227 39.557 130.227 39.013V34.0932H131.668V38.7283C131.668 38.9702 131.701 39.1212 131.769 39.1815C131.836 39.2418 131.979 39.272 132.199 39.272H132.414V40.748H131.617Z" fill="#F99F1B"/>
<path d="M133.298 35.4655C133.298 35.25 133.371 35.064 133.519 34.9088C133.666 34.7533 133.846 34.6756 134.056 34.6756C134.267 34.6756 134.448 34.7533 134.6 34.9088C134.752 35.064 134.828 35.25 134.828 35.4655C134.828 35.6813 134.752 35.8649 134.6 36.0157C134.448 36.1667 134.267 36.2424 134.056 36.2424C133.846 36.2424 133.666 36.1667 133.519 36.0157C133.371 35.8649 133.298 35.6813 133.298 35.4655ZM132.109 39.3624C132.109 39.3282 132.143 39.3042 132.211 39.2912C132.278 39.2785 132.346 39.272 132.413 39.272H133.829C134.124 39.272 134.271 39.1165 134.271 38.8058V37.2135H135.713V38.9353C135.713 39.1682 135.673 39.3929 135.593 39.6087C135.512 39.8245 135.403 40.0164 135.264 40.1849C135.125 40.3531 134.96 40.4891 134.771 40.5925C134.581 40.696 134.373 40.748 134.145 40.748H132.413C132.346 40.748 132.278 40.7395 132.211 40.722C132.143 40.7049 132.109 40.6789 132.109 40.6443V39.3624Z" fill="#F99F1B"/>
</svg>
