<?xml version="1.0" encoding="UTF-8"?>
<svg width="32" height="32" viewBox="0 0 32 32" fill="none" xmlns="http://www.w3.org/2000/svg">
<path d="M29.3333 15H27.6667V13.3334C27.6667 12.7867 27.2133 12.3334 26.6667 12.3334C26.12 12.3334 25.6667 12.7867 25.6667 13.3334V15H24C23.4533 15 23 15.4534 23 16C23 16.5467 23.4533 17 24 17H25.6667V18.6667C25.6667 19.2134 26.12 19.6667 26.6667 19.6667C27.2133 19.6667 27.6667 19.2134 27.6667 18.6667V17H29.3333C29.88 17 30.3333 16.5467 30.3333 16C30.3333 15.4534 29.88 15 29.3333 15Z" fill="white"/>
<path opacity="0.4" d="M21 9.88004V22.12C21 24.4134 20.1733 26.1334 18.6933 26.96C18.0933 27.2934 17.4266 27.4534 16.7333 27.4534C15.6666 27.4534 14.52 27.0934 13.3466 26.36L9.45331 23.92C9.18665 23.76 8.87998 23.6667 8.57331 23.6667H7.33331V8.33337H8.57331C8.87998 8.33337 9.18665 8.24004 9.45331 8.08004L13.3466 5.64004C15.2933 4.42671 17.2 4.21337 18.6933 5.04004C20.1733 5.86671 21 7.5867 21 9.88004Z" fill="white"/>
<path d="M7.33335 8.33337V23.6667H6.66669C3.44002 23.6667 1.66669 21.8934 1.66669 18.6667V13.3334C1.66669 10.1067 3.44002 8.33337 6.66669 8.33337H7.33335Z" fill="white"/>
</svg>
